<svg width="1439" height="718" viewBox="0 0 1439 718" fill="none" xmlns="http://www.w3.org/2000/svg">
<g opacity="0.46">
<path style="mix-blend-mode:screen" d="M708.932 708.781C1081.47 708.781 1383.46 550.127 1383.46 354.418C1383.46 158.709 1081.47 0.0559082 708.932 0.0559082C336.399 0.0559082 34.4011 158.709 34.4011 354.418C34.4011 550.127 336.399 708.781 708.932 708.781Z" fill="url(#paint0_radial_19_1561)"/>
<g style="mix-blend-mode:overlay">
<path d="M675.93 718L734.839 596.188L768.416 718H769.165L735.264 594.942C735.238 594.87 735.193 594.808 735.135 594.765C735.078 594.722 735.009 594.698 734.939 594.698C734.869 594.698 734.801 594.722 734.743 594.765C734.685 594.808 734.64 594.87 734.614 594.942L675.131 718H675.93Z" fill="white"/>
<path d="M266.14 718L487.161 489.63L535.453 718H536.177L487.711 488.772C487.691 488.707 487.659 488.649 487.615 488.601C487.572 488.553 487.519 488.517 487.461 488.495C487.406 488.467 487.347 488.453 487.286 488.453C487.226 488.453 487.166 488.467 487.111 488.495L265.091 718H266.14Z" fill="white"/>
<path d="M734.914 595.44H734.789L487.161 489.242C487.107 489.22 487.058 489.182 487.02 489.133C486.981 489.084 486.955 489.025 486.942 488.962C486.93 488.898 486.932 488.833 486.949 488.77C486.965 488.708 486.995 488.651 487.037 488.606L563.384 396.859C563.465 396.829 563.552 396.829 563.633 396.859C563.714 396.827 563.802 396.827 563.883 396.859L735.189 594.693C735.238 594.765 735.264 594.852 735.264 594.942C735.264 595.032 735.238 595.119 735.189 595.191C735.17 595.258 735.134 595.317 735.085 595.361C735.036 595.405 734.977 595.433 734.914 595.44ZM487.986 488.716L733.565 593.918L563.683 397.662L487.986 488.716Z" fill="white"/>
<path d="M536.177 718L487.861 489.519L734.49 595.274L675.131 718H675.93L735.239 595.247C735.275 595.139 735.275 595.021 735.239 594.914C735.201 594.814 735.129 594.735 735.039 594.693L487.461 488.522C487.408 488.488 487.348 488.471 487.286 488.471C487.225 488.471 487.165 488.488 487.111 488.522C487.062 488.57 487.025 488.63 487.003 488.698C486.981 488.766 486.975 488.839 486.987 488.91L535.453 718H536.177Z" fill="white"/>
<path d="M769.165 718L735.464 595.634L1102.16 718H1104.66L735.039 594.693C734.983 594.654 734.918 594.633 734.852 594.633C734.785 594.633 734.72 594.654 734.664 594.693C734.634 594.752 734.618 594.819 734.618 594.887C734.618 594.955 734.634 595.022 734.664 595.08L768.416 718H769.165Z" fill="white"/>
<path d="M734.914 595.44C734.834 595.474 734.745 595.474 734.665 595.44L563.384 397.606C563.357 397.551 563.344 397.489 563.344 397.426C563.344 397.364 563.357 397.302 563.384 397.246C563.399 397.18 563.431 397.119 563.475 397.071C563.518 397.022 563.573 396.987 563.633 396.97L1303.54 158.772C1303.63 158.749 1303.71 158.759 1303.79 158.8C1303.87 158.84 1303.93 158.908 1303.97 158.993C1304.01 159.079 1304.02 159.177 1303.99 159.269C1303.97 159.361 1303.92 159.44 1303.84 159.491L735.114 595.385L734.914 595.44ZM564.308 397.413L734.964 594.554L1301.6 160.211L564.308 397.413Z" fill="white"/>
<path d="M1102.16 718H1104.66L735.739 594.914L1303.24 159.962L1257.88 718H1258.58L1304.09 159.187C1304.09 159.116 1304.08 159.046 1304.05 158.983C1304.02 158.921 1303.97 158.867 1303.92 158.827C1303.86 158.785 1303.79 158.763 1303.72 158.763C1303.65 158.763 1303.58 158.785 1303.52 158.827L734.714 594.721C734.62 594.823 734.566 594.962 734.565 595.108C734.575 595.184 734.603 595.255 734.647 595.313C734.691 595.372 734.749 595.416 734.814 595.44L1102.16 718Z" fill="white"/>
<path d="M1439 237.313V236.427L1303.82 158.772C1303.77 158.745 1303.71 158.731 1303.66 158.731C1303.6 158.731 1303.54 158.745 1303.49 158.772C1303.44 158.806 1303.39 158.854 1303.36 158.911C1303.32 158.969 1303.3 159.035 1303.29 159.104L1257.88 718H1258.58L1304.09 159.768L1439 237.313Z" fill="white"/>
<path d="M1439 339.746L1275.49 718H1276.29L1439 341.573V339.746Z" fill="white"/>
<path d="M182.873 718H183.622L305.713 290.052C305.741 289.987 305.756 289.916 305.756 289.844C305.756 289.772 305.741 289.701 305.713 289.637C305.659 289.603 305.599 289.585 305.538 289.585C305.476 289.585 305.416 289.603 305.363 289.637L0 392.319V393.121L304.788 290.522L182.873 718Z" fill="white"/>
<path d="M183.622 718L305.538 290.661L486.837 488.855L265.091 718H266.14L487.611 489.159C487.635 489.069 487.635 488.973 487.611 488.882C487.629 488.839 487.638 488.792 487.638 488.744C487.638 488.696 487.629 488.649 487.611 488.606L305.613 289.637C305.563 289.607 305.507 289.592 305.45 289.592C305.394 289.592 305.338 289.607 305.288 289.637C305.229 289.646 305.173 289.674 305.128 289.719C305.084 289.763 305.052 289.821 305.038 289.886L182.873 718H183.622Z" fill="white"/>
<path d="M1439 339.746L1275.49 718H1276.29L1439 341.573V339.746Z" fill="white"/>
<path d="M1439 675.338L1353.76 718H1355.48L1439 676.196V675.338Z" fill="white"/>
<path d="M1439 675.338L1353.76 718H1355.48L1439 676.196V675.338Z" fill="white"/>
<path d="M737.912 595.053C737.917 595.711 737.746 596.356 737.419 596.906C737.093 597.456 736.626 597.886 736.079 598.142C735.532 598.397 734.928 598.467 734.345 598.342C733.762 598.217 733.225 597.903 732.803 597.439C732.382 596.976 732.094 596.384 731.976 595.739C731.858 595.094 731.916 594.424 732.142 593.815C732.368 593.207 732.753 592.686 733.246 592.32C733.74 591.954 734.32 591.758 734.914 591.758C735.307 591.755 735.696 591.837 736.06 592.001C736.423 592.165 736.754 592.407 737.033 592.713C737.311 593.02 737.533 593.384 737.684 593.786C737.834 594.187 737.912 594.618 737.912 595.053Z" fill="white"/>
<path d="M490.334 488.882C490.334 489.534 490.16 490.171 489.833 490.713C489.507 491.254 489.042 491.677 488.499 491.926C487.956 492.175 487.358 492.241 486.781 492.114C486.205 491.986 485.675 491.673 485.259 491.212C484.843 490.751 484.56 490.164 484.446 489.525C484.331 488.886 484.39 488.224 484.615 487.622C484.84 487.02 485.221 486.505 485.71 486.143C486.199 485.781 486.773 485.588 487.361 485.588C488.15 485.588 488.906 485.935 489.464 486.553C490.021 487.171 490.334 488.009 490.334 488.882Z" fill="white"/>
<path d="M490.334 488.882C490.334 489.534 490.16 490.171 489.833 490.713C489.507 491.254 489.042 491.677 488.499 491.926C487.956 492.175 487.358 492.241 486.781 492.114C486.205 491.986 485.675 491.673 485.259 491.212C484.843 490.751 484.56 490.164 484.446 489.525C484.331 488.886 484.39 488.224 484.615 487.622C484.84 487.02 485.221 486.505 485.71 486.143C486.199 485.781 486.773 485.588 487.361 485.588C488.15 485.588 488.906 485.935 489.464 486.553C490.021 487.171 490.334 488.009 490.334 488.882Z" fill="white"/>
<path d="M737.912 595.053C737.917 595.711 737.746 596.356 737.419 596.906C737.093 597.456 736.626 597.886 736.079 598.142C735.532 598.397 734.928 598.467 734.345 598.342C733.762 598.217 733.225 597.903 732.803 597.439C732.382 596.976 732.094 596.384 731.976 595.739C731.858 595.094 731.916 594.424 732.142 593.815C732.368 593.207 732.753 592.686 733.246 592.32C733.74 591.954 734.32 591.758 734.914 591.758C735.307 591.755 735.696 591.837 736.06 592.001C736.423 592.165 736.754 592.407 737.033 592.713C737.311 593.02 737.533 593.384 737.684 593.786C737.834 594.187 737.912 594.618 737.912 595.053Z" fill="white"/>
<path d="M566.606 397.219C566.606 397.87 566.432 398.507 566.105 399.049C565.779 399.591 565.314 400.013 564.771 400.262C564.228 400.512 563.63 400.577 563.053 400.45C562.477 400.323 561.947 400.009 561.531 399.548C561.115 399.088 560.832 398.501 560.718 397.862C560.603 397.222 560.662 396.56 560.887 395.958C561.112 395.356 561.493 394.842 561.982 394.48C562.471 394.118 563.045 393.924 563.633 393.924C564.422 393.924 565.178 394.271 565.736 394.889C566.293 395.507 566.606 396.345 566.606 397.219Z" fill="white"/>
<path d="M490.334 488.882C490.334 489.534 490.16 490.171 489.833 490.713C489.507 491.254 489.042 491.677 488.499 491.926C487.956 492.175 487.358 492.241 486.781 492.114C486.205 491.986 485.675 491.673 485.259 491.212C484.843 490.751 484.56 490.164 484.446 489.525C484.331 488.886 484.39 488.224 484.615 487.622C484.84 487.02 485.221 486.505 485.71 486.143C486.199 485.781 486.773 485.588 487.361 485.588C488.15 485.588 488.906 485.935 489.464 486.553C490.021 487.171 490.334 488.009 490.334 488.882Z" fill="white"/>
<path d="M737.912 595.053C737.917 595.711 737.746 596.356 737.419 596.906C737.093 597.456 736.626 597.886 736.079 598.142C735.532 598.397 734.928 598.467 734.345 598.342C733.762 598.217 733.225 597.903 732.803 597.439C732.382 596.976 732.094 596.384 731.976 595.739C731.858 595.094 731.916 594.424 732.142 593.815C732.368 593.207 732.753 592.686 733.246 592.32C733.74 591.954 734.32 591.758 734.914 591.758C735.307 591.755 735.696 591.837 736.06 592.001C736.423 592.165 736.754 592.407 737.033 592.713C737.311 593.02 737.533 593.384 737.684 593.786C737.834 594.187 737.912 594.618 737.912 595.053Z" fill="white"/>
<path d="M737.912 595.053C737.917 595.711 737.746 596.356 737.419 596.906C737.093 597.456 736.626 597.886 736.079 598.142C735.532 598.397 734.928 598.467 734.345 598.342C733.762 598.217 733.225 597.903 732.803 597.439C732.382 596.976 732.094 596.384 731.976 595.739C731.858 595.094 731.916 594.424 732.142 593.815C732.368 593.207 732.753 592.686 733.246 592.32C733.74 591.954 734.32 591.758 734.914 591.758C735.307 591.755 735.696 591.837 736.06 592.001C736.423 592.165 736.754 592.407 737.033 592.713C737.311 593.02 737.533 593.384 737.684 593.786C737.834 594.187 737.912 594.618 737.912 595.053Z" fill="white"/>
<path d="M1306.59 159.159C1306.6 159.817 1306.43 160.462 1306.1 161.012C1305.77 161.562 1305.31 161.992 1304.76 162.248C1304.21 162.504 1303.61 162.574 1303.02 162.448C1302.44 162.323 1301.91 162.009 1301.48 161.546C1301.06 161.082 1300.77 160.49 1300.66 159.845C1300.54 159.2 1300.6 158.531 1300.82 157.922C1301.05 157.313 1301.43 156.793 1301.93 156.427C1302.42 156.06 1303 155.865 1303.59 155.865C1303.99 155.861 1304.38 155.944 1304.74 156.107C1305.1 156.271 1305.43 156.513 1305.71 156.82C1305.99 157.126 1306.21 157.49 1306.36 157.892C1306.51 158.293 1306.59 158.724 1306.59 159.159Z" fill="white"/>
<path d="M737.912 595.053C737.917 595.711 737.746 596.356 737.419 596.906C737.093 597.456 736.626 597.886 736.079 598.142C735.532 598.397 734.928 598.467 734.345 598.342C733.762 598.217 733.225 597.903 732.803 597.439C732.382 596.976 732.094 596.384 731.976 595.739C731.858 595.094 731.916 594.424 732.142 593.815C732.368 593.207 732.753 592.686 733.246 592.32C733.74 591.954 734.32 591.758 734.914 591.758C735.307 591.755 735.696 591.837 736.06 592.001C736.423 592.165 736.754 592.407 737.033 592.713C737.311 593.02 737.533 593.384 737.684 593.786C737.834 594.187 737.912 594.618 737.912 595.053Z" fill="white"/>
<path d="M566.606 397.219C566.606 397.87 566.432 398.507 566.105 399.049C565.779 399.591 565.314 400.013 564.771 400.262C564.228 400.512 563.63 400.577 563.053 400.45C562.477 400.323 561.947 400.009 561.531 399.548C561.115 399.088 560.832 398.501 560.718 397.862C560.603 397.222 560.662 396.56 560.887 395.958C561.112 395.356 561.493 394.842 561.982 394.48C562.471 394.118 563.045 393.924 563.633 393.924C564.422 393.924 565.178 394.271 565.736 394.889C566.293 395.507 566.606 396.345 566.606 397.219Z" fill="white"/>
<path d="M1306.59 159.159C1306.6 159.817 1306.43 160.462 1306.1 161.012C1305.77 161.562 1305.31 161.992 1304.76 162.248C1304.21 162.504 1303.61 162.574 1303.02 162.448C1302.44 162.323 1301.91 162.009 1301.48 161.546C1301.06 161.082 1300.77 160.49 1300.66 159.845C1300.54 159.2 1300.6 158.531 1300.82 157.922C1301.05 157.313 1301.43 156.793 1301.93 156.427C1302.42 156.06 1303 155.865 1303.59 155.865C1303.99 155.861 1304.38 155.944 1304.74 156.107C1305.1 156.271 1305.43 156.513 1305.71 156.82C1305.99 157.126 1306.21 157.49 1306.36 157.892C1306.51 158.293 1306.59 158.724 1306.59 159.159Z" fill="white"/>
<path d="M737.912 595.053C737.917 595.711 737.746 596.356 737.419 596.906C737.093 597.456 736.626 597.886 736.079 598.142C735.532 598.397 734.928 598.467 734.345 598.342C733.762 598.217 733.225 597.903 732.803 597.439C732.382 596.976 732.094 596.384 731.976 595.739C731.858 595.094 731.916 594.424 732.142 593.815C732.368 593.207 732.753 592.686 733.246 592.32C733.74 591.954 734.32 591.758 734.914 591.758C735.307 591.755 735.696 591.837 736.06 592.001C736.423 592.165 736.754 592.407 737.033 592.713C737.311 593.02 737.533 593.384 737.684 593.786C737.834 594.187 737.912 594.618 737.912 595.053Z" fill="white"/>
<path d="M1306.59 159.159C1306.6 159.817 1306.43 160.462 1306.1 161.012C1305.77 161.562 1305.31 161.992 1304.76 162.248C1304.21 162.504 1303.61 162.574 1303.02 162.448C1302.44 162.323 1301.91 162.009 1301.48 161.546C1301.06 161.082 1300.77 160.49 1300.66 159.845C1300.54 159.2 1300.6 158.531 1300.82 157.922C1301.05 157.313 1301.43 156.793 1301.93 156.427C1302.42 156.06 1303 155.865 1303.59 155.865C1303.99 155.861 1304.38 155.944 1304.74 156.107C1305.1 156.271 1305.43 156.513 1305.71 156.82C1305.99 157.126 1306.21 157.49 1306.36 157.892C1306.51 158.293 1306.59 158.724 1306.59 159.159Z" fill="white"/>
<path d="M305.363 293.208C307.005 293.208 308.336 291.733 308.336 289.913C308.336 288.094 307.005 286.619 305.363 286.619C303.721 286.619 302.39 288.094 302.39 289.913C302.39 291.733 303.721 293.208 305.363 293.208Z" fill="white"/>
<path d="M305.363 293.208C307.005 293.208 308.336 291.733 308.336 289.913C308.336 288.094 307.005 286.619 305.363 286.619C303.721 286.619 302.39 288.094 302.39 289.913C302.39 291.733 303.721 293.208 305.363 293.208Z" fill="white"/>
<path d="M490.334 488.882C490.334 489.534 490.16 490.171 489.833 490.713C489.507 491.254 489.042 491.677 488.499 491.926C487.956 492.175 487.358 492.241 486.781 492.114C486.205 491.986 485.675 491.673 485.259 491.212C484.843 490.751 484.56 490.164 484.446 489.525C484.331 488.886 484.39 488.224 484.615 487.622C484.84 487.02 485.221 486.505 485.71 486.143C486.199 485.781 486.773 485.588 487.361 485.588C488.15 485.588 488.906 485.935 489.464 486.553C490.021 487.171 490.334 488.009 490.334 488.882Z" fill="white"/>
</g>
<g style="mix-blend-mode:overlay">
<path d="M1439 701.389L1430.96 718H1431.75L1439 703.023V701.389Z" fill="white"/>
<path d="M150.146 718H151.07L177.577 684.086C177.611 683.988 177.611 683.88 177.577 683.782C177.558 683.673 177.505 683.575 177.427 683.505L0 548.293V549.124L176.802 683.809L150.146 718Z" fill="white"/>
<path d="M1073.68 718L1191.45 596.188L1217.2 718H1217.93L1192.02 595.44C1192 595.375 1191.97 595.316 1191.93 595.267C1191.88 595.219 1191.83 595.184 1191.77 595.165C1191.71 595.146 1191.65 595.143 1191.59 595.158C1191.53 595.172 1191.47 595.202 1191.42 595.247L1072.63 718H1073.68Z" fill="white"/>
<path d="M1439 700.891L1268.19 503.611C1268.15 503.592 1268.11 503.583 1268.07 503.583C1268.03 503.583 1267.98 503.592 1267.94 503.611C1267.86 503.572 1267.76 503.572 1267.67 503.611L1191.4 595.274C1191.37 595.33 1191.36 595.391 1191.36 595.454C1191.36 595.517 1191.37 595.579 1191.4 595.634C1191.41 595.696 1191.44 595.754 1191.48 595.802C1191.52 595.85 1191.57 595.887 1191.62 595.911L1439 702.026V700.891ZM1267.94 504.469L1437.83 700.725L1192.22 595.523L1267.94 504.469Z" fill="white"/>
<path d="M1439 701.195L1191.8 595.163C1191.74 595.124 1191.68 595.103 1191.61 595.103C1191.54 595.103 1191.48 595.124 1191.42 595.163C1191.39 595.222 1191.38 595.289 1191.38 595.357C1191.38 595.425 1191.39 595.492 1191.42 595.551L1217.2 718H1217.93L1192.17 596.188L1438.73 701.943L1430.96 718H1431.76L1439 703.023V701.195Z" fill="white"/>
<path d="M1439 700.891L1268.59 504.081L1439 449.266V448.435L1267.84 503.5C1267.78 503.517 1267.73 503.552 1267.69 503.601C1267.64 503.649 1267.61 503.71 1267.59 503.777C1267.57 503.836 1267.55 503.903 1267.55 503.97C1267.55 504.038 1267.57 504.105 1267.59 504.164L1439 701.998V700.891Z" fill="white"/>
<path d="M151.07 718L177.077 684.778L180.949 718H181.649L177.677 683.782C177.662 683.708 177.632 683.64 177.588 683.582C177.545 683.524 177.489 683.479 177.427 683.45C177.359 683.428 177.287 683.43 177.22 683.455C177.153 683.479 177.095 683.526 177.052 683.588L150.146 718H151.07Z" fill="white"/>
<path d="M541.724 718H543.023L389.579 605.739L1009.15 397.191L917.612 718H918.337L1010 396.693C1010.02 396.627 1010.03 396.554 1010.02 396.485C1010 396.415 1009.97 396.35 1009.93 396.3C1009.88 396.249 1009.82 396.215 1009.76 396.201C1009.7 396.187 1009.63 396.195 1009.57 396.222L388.655 605.213C388.598 605.249 388.55 605.302 388.517 605.365C388.484 605.428 388.467 605.5 388.467 605.573C388.467 605.646 388.484 605.718 388.517 605.781C388.55 605.844 388.598 605.896 388.655 605.933L541.724 718Z" fill="white"/>
<path d="M918.337 718L1009.82 397.33L1191.15 595.523L1072.63 718H1073.68L1191.9 595.828C1191.93 595.794 1191.96 595.752 1191.99 595.704C1192.01 595.656 1192.02 595.604 1192.02 595.551C1192.05 595.451 1192.05 595.346 1192.02 595.247L1009.92 396.305C1009.87 396.279 1009.81 396.266 1009.75 396.266C1009.69 396.266 1009.63 396.279 1009.57 396.305C1009.46 396.358 1009.37 396.458 1009.32 396.582L917.612 718H918.337Z" fill="white"/>
<path d="M181.649 718L177.751 684.557L233.563 718H235.062L177.602 683.477C177.544 683.443 177.48 683.426 177.414 683.426C177.349 683.426 177.285 683.443 177.227 683.477C177.168 683.516 177.122 683.575 177.095 683.644C177.068 683.714 177.062 683.791 177.077 683.865L180.949 718H181.649Z" fill="white"/>
<path d="M233.563 718H235.062L178.201 683.92L388.555 606.071L434.323 718H435.098L389.08 605.434C389.041 605.344 388.975 605.271 388.892 605.23C388.81 605.19 388.716 605.184 388.63 605.213L177.202 683.45C177.136 683.477 177.079 683.527 177.039 683.591C176.999 683.655 176.977 683.731 176.977 683.809C176.966 683.882 176.977 683.958 177.009 684.023C177.04 684.088 177.091 684.14 177.152 684.169L233.563 718Z" fill="white"/>
<path d="M434.323 718H435.098L389.579 606.68L541.724 718H543.023L388.955 605.268C388.894 605.217 388.819 605.189 388.742 605.189C388.666 605.189 388.591 605.217 388.53 605.268C388.483 605.336 388.458 605.419 388.458 605.504C388.458 605.589 388.483 605.671 388.53 605.739L434.323 718Z" fill="white"/>
<path d="M180.3 683.837C180.3 684.491 180.124 685.13 179.795 685.673C179.466 686.216 178.999 686.638 178.453 686.886C177.906 687.133 177.306 687.195 176.728 687.064C176.15 686.932 175.621 686.613 175.207 686.146C174.793 685.68 174.514 685.088 174.405 684.445C174.296 683.803 174.362 683.139 174.595 682.538C174.827 681.937 175.216 681.426 175.712 681.071C176.207 680.716 176.787 680.532 177.377 680.543C178.157 680.557 178.9 680.911 179.447 681.527C179.993 682.143 180.3 682.973 180.3 683.837Z" fill="white"/>
<path d="M1194.64 595.523C1194.64 596.175 1194.47 596.812 1194.14 597.354C1193.82 597.895 1193.35 598.318 1192.81 598.567C1192.27 598.816 1191.67 598.882 1191.09 598.755C1190.52 598.627 1189.99 598.314 1189.57 597.853C1189.15 597.392 1188.87 596.805 1188.76 596.166C1188.64 595.527 1188.7 594.865 1188.93 594.263C1189.15 593.661 1189.53 593.146 1190.02 592.784C1190.51 592.422 1191.08 592.229 1191.67 592.229C1192.46 592.236 1193.21 592.586 1193.77 593.202C1194.32 593.818 1194.64 594.652 1194.64 595.523Z" fill="white"/>
<path d="M1194.64 595.523C1194.64 596.175 1194.47 596.812 1194.14 597.354C1193.82 597.895 1193.35 598.318 1192.81 598.567C1192.27 598.816 1191.67 598.882 1191.09 598.755C1190.52 598.627 1189.99 598.314 1189.57 597.853C1189.15 597.392 1188.87 596.805 1188.76 596.166C1188.64 595.527 1188.7 594.865 1188.93 594.263C1189.15 593.661 1189.53 593.146 1190.02 592.784C1190.51 592.422 1191.08 592.229 1191.67 592.229C1192.46 592.236 1193.21 592.586 1193.77 593.202C1194.32 593.818 1194.64 594.652 1194.64 595.523Z" fill="white"/>
<path d="M1270.92 503.887C1270.92 504.539 1270.74 505.176 1270.42 505.718C1270.09 506.26 1269.62 506.682 1269.08 506.931C1268.54 507.18 1267.94 507.246 1267.36 507.119C1266.79 506.991 1266.26 506.678 1265.84 506.217C1265.43 505.756 1265.14 505.169 1265.03 504.53C1264.91 503.891 1264.97 503.229 1265.2 502.627C1265.42 502.025 1265.8 501.51 1266.29 501.148C1266.78 500.786 1267.36 500.593 1267.94 500.593C1268.73 500.593 1269.49 500.94 1270.05 501.558C1270.6 502.176 1270.92 503.014 1270.92 503.887Z" fill="white"/>
<path d="M1194.64 595.523C1194.64 596.175 1194.47 596.812 1194.14 597.354C1193.82 597.895 1193.35 598.318 1192.81 598.567C1192.27 598.816 1191.67 598.882 1191.09 598.755C1190.52 598.627 1189.99 598.314 1189.57 597.853C1189.15 597.392 1188.87 596.805 1188.76 596.166C1188.64 595.527 1188.7 594.865 1188.93 594.263C1189.15 593.661 1189.53 593.146 1190.02 592.784C1190.51 592.422 1191.08 592.229 1191.67 592.229C1192.46 592.236 1193.21 592.586 1193.77 593.202C1194.32 593.818 1194.64 594.652 1194.64 595.523Z" fill="white"/>
<path d="M1270.92 503.887C1270.92 504.539 1270.74 505.176 1270.42 505.718C1270.09 506.26 1269.62 506.682 1269.08 506.931C1268.54 507.18 1267.94 507.246 1267.36 507.119C1266.79 506.991 1266.26 506.678 1265.84 506.217C1265.43 505.756 1265.14 505.169 1265.03 504.53C1264.91 503.891 1264.97 503.229 1265.2 502.627C1265.42 502.025 1265.8 501.51 1266.29 501.148C1266.78 500.786 1267.36 500.593 1267.94 500.593C1268.73 500.593 1269.49 500.94 1270.05 501.558C1270.6 502.176 1270.92 503.014 1270.92 503.887Z" fill="white"/>
<path d="M180.3 683.837C180.3 684.491 180.124 685.13 179.795 685.673C179.466 686.216 178.999 686.638 178.453 686.886C177.906 687.133 177.306 687.195 176.728 687.064C176.15 686.932 175.621 686.613 175.207 686.146C174.793 685.68 174.514 685.088 174.405 684.445C174.296 683.803 174.362 683.139 174.595 682.538C174.827 681.937 175.216 681.426 175.712 681.071C176.207 680.716 176.787 680.532 177.377 680.543C178.157 680.557 178.9 680.911 179.447 681.527C179.993 682.143 180.3 682.973 180.3 683.837Z" fill="white"/>
<path d="M1012.65 396.582C1012.65 397.234 1012.47 397.871 1012.15 398.412C1011.82 398.954 1011.35 399.376 1010.81 399.626C1010.27 399.875 1009.67 399.94 1009.09 399.813C1008.52 399.686 1007.99 399.372 1007.57 398.912C1007.16 398.451 1006.87 397.864 1006.76 397.225C1006.64 396.586 1006.7 395.923 1006.93 395.321C1007.15 394.719 1007.53 394.205 1008.02 393.843C1008.51 393.481 1009.09 393.288 1009.67 393.288C1010.46 393.288 1011.22 393.635 1011.78 394.253C1012.33 394.87 1012.65 395.708 1012.65 396.582Z" fill="white"/>
<path d="M391.728 605.601C391.728 606.252 391.553 606.889 391.227 607.431C390.9 607.973 390.436 608.395 389.893 608.644C389.349 608.894 388.752 608.959 388.175 608.832C387.598 608.705 387.068 608.391 386.653 607.93C386.237 607.469 385.954 606.882 385.839 606.243C385.724 605.604 385.783 604.942 386.008 604.34C386.233 603.738 386.614 603.223 387.103 602.861C387.592 602.499 388.167 602.306 388.755 602.306C389.543 602.306 390.299 602.653 390.857 603.271C391.415 603.889 391.728 604.727 391.728 605.601Z" fill="white"/>
<path d="M1012.65 396.582C1012.65 397.234 1012.47 397.871 1012.15 398.412C1011.82 398.954 1011.35 399.376 1010.81 399.626C1010.27 399.875 1009.67 399.94 1009.09 399.813C1008.52 399.686 1007.99 399.372 1007.57 398.912C1007.16 398.451 1006.87 397.864 1006.76 397.225C1006.64 396.586 1006.7 395.923 1006.93 395.321C1007.15 394.719 1007.53 394.205 1008.02 393.843C1008.51 393.481 1009.09 393.288 1009.67 393.288C1010.46 393.288 1011.22 393.635 1011.78 394.253C1012.33 394.87 1012.65 395.708 1012.65 396.582Z" fill="white"/>
<path d="M1194.64 595.523C1194.64 596.175 1194.47 596.812 1194.14 597.354C1193.82 597.895 1193.35 598.318 1192.81 598.567C1192.27 598.816 1191.67 598.882 1191.09 598.755C1190.52 598.627 1189.99 598.314 1189.57 597.853C1189.15 597.392 1188.87 596.805 1188.76 596.166C1188.64 595.527 1188.7 594.865 1188.93 594.263C1189.15 593.661 1189.53 593.146 1190.02 592.784C1190.51 592.422 1191.08 592.229 1191.67 592.229C1192.46 592.236 1193.21 592.586 1193.77 593.202C1194.32 593.818 1194.64 594.652 1194.64 595.523Z" fill="white"/>
<path d="M180.3 683.837C180.3 684.491 180.124 685.13 179.795 685.673C179.466 686.216 178.999 686.638 178.453 686.886C177.906 687.133 177.306 687.195 176.728 687.064C176.15 686.932 175.621 686.613 175.207 686.146C174.793 685.68 174.514 685.088 174.405 684.445C174.296 683.803 174.362 683.139 174.595 682.538C174.827 681.937 175.216 681.426 175.712 681.071C176.207 680.716 176.787 680.532 177.377 680.543C178.157 680.557 178.9 680.911 179.447 681.527C179.993 682.143 180.3 682.973 180.3 683.837Z" fill="white"/>
<path d="M391.728 605.601C391.728 606.252 391.553 606.889 391.227 607.431C390.9 607.973 390.436 608.395 389.893 608.644C389.349 608.894 388.752 608.959 388.175 608.832C387.598 608.705 387.068 608.391 386.653 607.93C386.237 607.469 385.954 606.882 385.839 606.243C385.724 605.604 385.783 604.942 386.008 604.34C386.233 603.738 386.614 603.223 387.103 602.861C387.592 602.499 388.167 602.306 388.755 602.306C389.543 602.306 390.299 602.653 390.857 603.271C391.415 603.889 391.728 604.727 391.728 605.601Z" fill="white"/>
<path d="M180.3 683.837C180.3 684.491 180.124 685.13 179.795 685.673C179.466 686.216 178.999 686.638 178.453 686.886C177.906 687.133 177.306 687.195 176.728 687.064C176.15 686.932 175.621 686.613 175.207 686.146C174.793 685.68 174.514 685.088 174.405 684.445C174.296 683.803 174.362 683.139 174.595 682.538C174.827 681.937 175.216 681.426 175.712 681.071C176.207 680.716 176.787 680.532 177.377 680.543C178.157 680.557 178.9 680.911 179.447 681.527C179.993 682.143 180.3 682.973 180.3 683.837Z" fill="white"/>
<path d="M391.728 605.601C391.728 606.252 391.553 606.889 391.227 607.431C390.9 607.973 390.436 608.395 389.893 608.644C389.349 608.894 388.752 608.959 388.175 608.832C387.598 608.705 387.068 608.391 386.653 607.93C386.237 607.469 385.954 606.882 385.839 606.243C385.724 605.604 385.783 604.942 386.008 604.34C386.233 603.738 386.614 603.223 387.103 602.861C387.592 602.499 388.167 602.306 388.755 602.306C389.543 602.306 390.299 602.653 390.857 603.271C391.415 603.889 391.728 604.727 391.728 605.601Z" fill="white"/>
</g>
<g style="mix-blend-mode:overlay">
<path d="M675.93 718L734.839 596.188L768.416 718H769.165L735.264 594.942C735.238 594.87 735.193 594.808 735.135 594.765C735.078 594.722 735.009 594.698 734.939 594.698C734.869 594.698 734.801 594.722 734.743 594.765C734.685 594.808 734.64 594.87 734.614 594.942L675.131 718H675.93Z" fill="white"/>
<path d="M266.14 718L487.161 489.63L535.453 718H536.177L487.711 488.772C487.691 488.707 487.659 488.649 487.615 488.601C487.572 488.553 487.519 488.517 487.461 488.495C487.406 488.467 487.347 488.453 487.286 488.453C487.226 488.453 487.166 488.467 487.111 488.495L265.091 718H266.14Z" fill="white"/>
<path d="M734.914 595.44H734.789L487.161 489.242C487.107 489.22 487.058 489.182 487.02 489.133C486.981 489.084 486.955 489.025 486.942 488.962C486.93 488.898 486.932 488.833 486.949 488.77C486.965 488.708 486.995 488.651 487.037 488.606L563.384 396.859C563.465 396.829 563.552 396.829 563.633 396.859C563.714 396.827 563.802 396.827 563.883 396.859L735.189 594.693C735.238 594.765 735.264 594.852 735.264 594.942C735.264 595.032 735.238 595.119 735.189 595.191C735.17 595.258 735.134 595.317 735.085 595.361C735.036 595.405 734.977 595.433 734.914 595.44ZM487.986 488.716L733.565 593.918L563.683 397.662L487.986 488.716Z" fill="white"/>
<path d="M536.177 718L487.861 489.519L734.49 595.274L675.131 718H675.93L735.239 595.247C735.275 595.139 735.275 595.021 735.239 594.914C735.201 594.814 735.129 594.735 735.039 594.693L487.461 488.522C487.408 488.488 487.348 488.471 487.286 488.471C487.225 488.471 487.165 488.488 487.111 488.522C487.062 488.57 487.025 488.63 487.003 488.698C486.981 488.766 486.975 488.839 486.987 488.91L535.453 718H536.177Z" fill="white"/>
<path d="M769.165 718L735.464 595.634L1102.16 718H1104.66L735.039 594.693C734.983 594.654 734.918 594.633 734.852 594.633C734.785 594.633 734.72 594.654 734.664 594.693C734.634 594.752 734.618 594.819 734.618 594.887C734.618 594.955 734.634 595.022 734.664 595.08L768.416 718H769.165Z" fill="white"/>
<path d="M734.914 595.44C734.834 595.474 734.745 595.474 734.665 595.44L563.384 397.606C563.357 397.551 563.344 397.489 563.344 397.426C563.344 397.364 563.357 397.302 563.384 397.246C563.399 397.18 563.431 397.119 563.475 397.071C563.518 397.022 563.573 396.987 563.633 396.97L1303.54 158.772C1303.63 158.749 1303.71 158.759 1303.79 158.8C1303.87 158.84 1303.93 158.908 1303.97 158.993C1304.01 159.079 1304.02 159.177 1303.99 159.269C1303.97 159.361 1303.92 159.44 1303.84 159.491L735.114 595.385L734.914 595.44ZM564.308 397.413L734.964 594.554L1301.6 160.211L564.308 397.413Z" fill="white"/>
<path d="M1102.16 718H1104.66L735.739 594.914L1303.24 159.962L1257.88 718H1258.58L1304.09 159.187C1304.09 159.116 1304.08 159.046 1304.05 158.983C1304.02 158.921 1303.97 158.867 1303.92 158.827C1303.86 158.785 1303.79 158.763 1303.72 158.763C1303.65 158.763 1303.58 158.785 1303.52 158.827L734.714 594.721C734.62 594.823 734.566 594.962 734.565 595.108C734.575 595.184 734.603 595.255 734.647 595.313C734.691 595.372 734.749 595.416 734.814 595.44L1102.16 718Z" fill="white"/>
<path d="M1439 237.313V236.427L1303.82 158.772C1303.77 158.745 1303.71 158.731 1303.66 158.731C1303.6 158.731 1303.54 158.745 1303.49 158.772C1303.44 158.806 1303.39 158.854 1303.36 158.911C1303.32 158.969 1303.3 159.035 1303.29 159.104L1257.88 718H1258.58L1304.09 159.768L1439 237.313Z" fill="white"/>
<path d="M1439 339.746L1275.49 718H1276.29L1439 341.573V339.746Z" fill="white"/>
<path d="M182.873 718H183.622L305.713 290.052C305.741 289.987 305.756 289.916 305.756 289.844C305.756 289.772 305.741 289.701 305.713 289.637C305.659 289.603 305.599 289.585 305.538 289.585C305.476 289.585 305.416 289.603 305.363 289.637L0 392.319V393.121L304.788 290.522L182.873 718Z" fill="white"/>
<path d="M183.622 718L305.538 290.661L486.837 488.855L265.091 718H266.14L487.611 489.159C487.635 489.069 487.635 488.973 487.611 488.882C487.629 488.839 487.638 488.792 487.638 488.744C487.638 488.696 487.629 488.649 487.611 488.606L305.613 289.637C305.563 289.607 305.507 289.592 305.45 289.592C305.394 289.592 305.338 289.607 305.288 289.637C305.229 289.646 305.173 289.674 305.128 289.719C305.084 289.763 305.052 289.821 305.038 289.886L182.873 718H183.622Z" fill="white"/>
<path d="M1439 339.746L1275.49 718H1276.29L1439 341.573V339.746Z" fill="white"/>
<path d="M1439 675.338L1353.76 718H1355.48L1439 676.196V675.338Z" fill="white"/>
<path d="M1439 675.338L1353.76 718H1355.48L1439 676.196V675.338Z" fill="white"/>
<path d="M737.912 595.053C737.917 595.711 737.746 596.356 737.419 596.906C737.093 597.456 736.626 597.886 736.079 598.142C735.532 598.397 734.928 598.467 734.345 598.342C733.762 598.217 733.225 597.903 732.803 597.439C732.382 596.976 732.094 596.384 731.976 595.739C731.858 595.094 731.916 594.424 732.142 593.815C732.368 593.207 732.753 592.686 733.246 592.32C733.74 591.954 734.32 591.758 734.914 591.758C735.307 591.755 735.696 591.837 736.06 592.001C736.423 592.165 736.754 592.407 737.033 592.713C737.311 593.02 737.533 593.384 737.684 593.786C737.834 594.187 737.912 594.618 737.912 595.053Z" fill="white"/>
<path d="M490.334 488.882C490.334 489.534 490.16 490.171 489.833 490.713C489.507 491.254 489.042 491.677 488.499 491.926C487.956 492.175 487.358 492.241 486.781 492.114C486.205 491.986 485.675 491.673 485.259 491.212C484.843 490.751 484.56 490.164 484.446 489.525C484.331 488.886 484.39 488.224 484.615 487.622C484.84 487.02 485.221 486.505 485.71 486.143C486.199 485.781 486.773 485.588 487.361 485.588C488.15 485.588 488.906 485.935 489.464 486.553C490.021 487.171 490.334 488.009 490.334 488.882Z" fill="white"/>
<path d="M490.334 488.882C490.334 489.534 490.16 490.171 489.833 490.713C489.507 491.254 489.042 491.677 488.499 491.926C487.956 492.175 487.358 492.241 486.781 492.114C486.205 491.986 485.675 491.673 485.259 491.212C484.843 490.751 484.56 490.164 484.446 489.525C484.331 488.886 484.39 488.224 484.615 487.622C484.84 487.02 485.221 486.505 485.71 486.143C486.199 485.781 486.773 485.588 487.361 485.588C488.15 485.588 488.906 485.935 489.464 486.553C490.021 487.171 490.334 488.009 490.334 488.882Z" fill="white"/>
<path d="M737.912 595.053C737.917 595.711 737.746 596.356 737.419 596.906C737.093 597.456 736.626 597.886 736.079 598.142C735.532 598.397 734.928 598.467 734.345 598.342C733.762 598.217 733.225 597.903 732.803 597.439C732.382 596.976 732.094 596.384 731.976 595.739C731.858 595.094 731.916 594.424 732.142 593.815C732.368 593.207 732.753 592.686 733.246 592.32C733.74 591.954 734.32 591.758 734.914 591.758C735.307 591.755 735.696 591.837 736.06 592.001C736.423 592.165 736.754 592.407 737.033 592.713C737.311 593.02 737.533 593.384 737.684 593.786C737.834 594.187 737.912 594.618 737.912 595.053Z" fill="white"/>
<path d="M566.606 397.219C566.606 397.87 566.432 398.507 566.105 399.049C565.779 399.591 565.314 400.013 564.771 400.262C564.228 400.512 563.63 400.577 563.053 400.45C562.477 400.323 561.947 400.009 561.531 399.548C561.115 399.088 560.832 398.501 560.718 397.862C560.603 397.222 560.662 396.56 560.887 395.958C561.112 395.356 561.493 394.842 561.982 394.48C562.471 394.118 563.045 393.924 563.633 393.924C564.422 393.924 565.178 394.271 565.736 394.889C566.293 395.507 566.606 396.345 566.606 397.219Z" fill="white"/>
<path d="M490.334 488.882C490.334 489.534 490.16 490.171 489.833 490.713C489.507 491.254 489.042 491.677 488.499 491.926C487.956 492.175 487.358 492.241 486.781 492.114C486.205 491.986 485.675 491.673 485.259 491.212C484.843 490.751 484.56 490.164 484.446 489.525C484.331 488.886 484.39 488.224 484.615 487.622C484.84 487.02 485.221 486.505 485.71 486.143C486.199 485.781 486.773 485.588 487.361 485.588C488.15 485.588 488.906 485.935 489.464 486.553C490.021 487.171 490.334 488.009 490.334 488.882Z" fill="white"/>
<path d="M737.912 595.053C737.917 595.711 737.746 596.356 737.419 596.906C737.093 597.456 736.626 597.886 736.079 598.142C735.532 598.397 734.928 598.467 734.345 598.342C733.762 598.217 733.225 597.903 732.803 597.439C732.382 596.976 732.094 596.384 731.976 595.739C731.858 595.094 731.916 594.424 732.142 593.815C732.368 593.207 732.753 592.686 733.246 592.32C733.74 591.954 734.32 591.758 734.914 591.758C735.307 591.755 735.696 591.837 736.06 592.001C736.423 592.165 736.754 592.407 737.033 592.713C737.311 593.02 737.533 593.384 737.684 593.786C737.834 594.187 737.912 594.618 737.912 595.053Z" fill="white"/>
<path d="M737.912 595.053C737.917 595.711 737.746 596.356 737.419 596.906C737.093 597.456 736.626 597.886 736.079 598.142C735.532 598.397 734.928 598.467 734.345 598.342C733.762 598.217 733.225 597.903 732.803 597.439C732.382 596.976 732.094 596.384 731.976 595.739C731.858 595.094 731.916 594.424 732.142 593.815C732.368 593.207 732.753 592.686 733.246 592.32C733.74 591.954 734.32 591.758 734.914 591.758C735.307 591.755 735.696 591.837 736.06 592.001C736.423 592.165 736.754 592.407 737.033 592.713C737.311 593.02 737.533 593.384 737.684 593.786C737.834 594.187 737.912 594.618 737.912 595.053Z" fill="white"/>
<path d="M1306.59 159.159C1306.6 159.817 1306.43 160.462 1306.1 161.012C1305.77 161.562 1305.31 161.992 1304.76 162.248C1304.21 162.504 1303.61 162.574 1303.02 162.448C1302.44 162.323 1301.91 162.009 1301.48 161.546C1301.06 161.082 1300.77 160.49 1300.66 159.845C1300.54 159.2 1300.6 158.531 1300.82 157.922C1301.05 157.313 1301.43 156.793 1301.93 156.427C1302.42 156.06 1303 155.865 1303.59 155.865C1303.99 155.861 1304.38 155.944 1304.74 156.107C1305.1 156.271 1305.43 156.513 1305.71 156.82C1305.99 157.126 1306.21 157.49 1306.36 157.892C1306.51 158.293 1306.59 158.724 1306.59 159.159Z" fill="white"/>
<path d="M737.912 595.053C737.917 595.711 737.746 596.356 737.419 596.906C737.093 597.456 736.626 597.886 736.079 598.142C735.532 598.397 734.928 598.467 734.345 598.342C733.762 598.217 733.225 597.903 732.803 597.439C732.382 596.976 732.094 596.384 731.976 595.739C731.858 595.094 731.916 594.424 732.142 593.815C732.368 593.207 732.753 592.686 733.246 592.32C733.74 591.954 734.32 591.758 734.914 591.758C735.307 591.755 735.696 591.837 736.06 592.001C736.423 592.165 736.754 592.407 737.033 592.713C737.311 593.02 737.533 593.384 737.684 593.786C737.834 594.187 737.912 594.618 737.912 595.053Z" fill="white"/>
<path d="M566.606 397.219C566.606 397.87 566.432 398.507 566.105 399.049C565.779 399.591 565.314 400.013 564.771 400.262C564.228 400.512 563.63 400.577 563.053 400.45C562.477 400.323 561.947 400.009 561.531 399.548C561.115 399.088 560.832 398.501 560.718 397.862C560.603 397.222 560.662 396.56 560.887 395.958C561.112 395.356 561.493 394.842 561.982 394.48C562.471 394.118 563.045 393.924 563.633 393.924C564.422 393.924 565.178 394.271 565.736 394.889C566.293 395.507 566.606 396.345 566.606 397.219Z" fill="white"/>
<path d="M1306.59 159.159C1306.6 159.817 1306.43 160.462 1306.1 161.012C1305.77 161.562 1305.31 161.992 1304.76 162.248C1304.21 162.504 1303.61 162.574 1303.02 162.448C1302.44 162.323 1301.91 162.009 1301.48 161.546C1301.06 161.082 1300.77 160.49 1300.66 159.845C1300.54 159.2 1300.6 158.531 1300.82 157.922C1301.05 157.313 1301.43 156.793 1301.93 156.427C1302.42 156.06 1303 155.865 1303.59 155.865C1303.99 155.861 1304.38 155.944 1304.74 156.107C1305.1 156.271 1305.43 156.513 1305.71 156.82C1305.99 157.126 1306.21 157.49 1306.36 157.892C1306.51 158.293 1306.59 158.724 1306.59 159.159Z" fill="white"/>
<path d="M737.912 595.053C737.917 595.711 737.746 596.356 737.419 596.906C737.093 597.456 736.626 597.886 736.079 598.142C735.532 598.397 734.928 598.467 734.345 598.342C733.762 598.217 733.225 597.903 732.803 597.439C732.382 596.976 732.094 596.384 731.976 595.739C731.858 595.094 731.916 594.424 732.142 593.815C732.368 593.207 732.753 592.686 733.246 592.32C733.74 591.954 734.32 591.758 734.914 591.758C735.307 591.755 735.696 591.837 736.06 592.001C736.423 592.165 736.754 592.407 737.033 592.713C737.311 593.02 737.533 593.384 737.684 593.786C737.834 594.187 737.912 594.618 737.912 595.053Z" fill="white"/>
<path d="M1306.59 159.159C1306.6 159.817 1306.43 160.462 1306.1 161.012C1305.77 161.562 1305.31 161.992 1304.76 162.248C1304.21 162.504 1303.61 162.574 1303.02 162.448C1302.44 162.323 1301.91 162.009 1301.48 161.546C1301.06 161.082 1300.77 160.49 1300.66 159.845C1300.54 159.2 1300.6 158.531 1300.82 157.922C1301.05 157.313 1301.43 156.793 1301.93 156.427C1302.42 156.06 1303 155.865 1303.59 155.865C1303.99 155.861 1304.38 155.944 1304.74 156.107C1305.1 156.271 1305.43 156.513 1305.71 156.82C1305.99 157.126 1306.21 157.49 1306.36 157.892C1306.51 158.293 1306.59 158.724 1306.59 159.159Z" fill="white"/>
<path d="M305.363 293.208C307.005 293.208 308.336 291.733 308.336 289.913C308.336 288.094 307.005 286.619 305.363 286.619C303.721 286.619 302.39 288.094 302.39 289.913C302.39 291.733 303.721 293.208 305.363 293.208Z" fill="white"/>
<path d="M305.363 293.208C307.005 293.208 308.336 291.733 308.336 289.913C308.336 288.094 307.005 286.619 305.363 286.619C303.721 286.619 302.39 288.094 302.39 289.913C302.39 291.733 303.721 293.208 305.363 293.208Z" fill="white"/>
<path d="M490.334 488.882C490.334 489.534 490.16 490.171 489.833 490.713C489.507 491.254 489.042 491.677 488.499 491.926C487.956 492.175 487.358 492.241 486.781 492.114C486.205 491.986 485.675 491.673 485.259 491.212C484.843 490.751 484.56 490.164 484.446 489.525C484.331 488.886 484.39 488.224 484.615 487.622C484.84 487.02 485.221 486.505 485.71 486.143C486.199 485.781 486.773 485.588 487.361 485.588C488.15 485.588 488.906 485.935 489.464 486.553C490.021 487.171 490.334 488.009 490.334 488.882Z" fill="white"/>
</g>
<g style="mix-blend-mode:overlay">
<path d="M1439 701.389L1430.96 718H1431.75L1439 703.023V701.389Z" fill="white"/>
<path d="M150.146 718H151.07L177.577 684.086C177.611 683.988 177.611 683.88 177.577 683.782C177.558 683.673 177.505 683.575 177.427 683.505L0 548.293V549.124L176.802 683.809L150.146 718Z" fill="white"/>
<path d="M1073.68 718L1191.45 596.188L1217.2 718H1217.93L1192.02 595.44C1192 595.375 1191.97 595.316 1191.93 595.267C1191.88 595.219 1191.83 595.184 1191.77 595.165C1191.71 595.146 1191.65 595.143 1191.59 595.158C1191.53 595.172 1191.47 595.202 1191.42 595.247L1072.63 718H1073.68Z" fill="white"/>
<path d="M1439 700.891L1268.19 503.611C1268.15 503.592 1268.11 503.583 1268.07 503.583C1268.03 503.583 1267.98 503.592 1267.94 503.611C1267.86 503.572 1267.76 503.572 1267.67 503.611L1191.4 595.274C1191.37 595.33 1191.36 595.391 1191.36 595.454C1191.36 595.517 1191.37 595.579 1191.4 595.634C1191.41 595.696 1191.44 595.754 1191.48 595.802C1191.52 595.85 1191.57 595.887 1191.62 595.911L1439 702.026V700.891ZM1267.94 504.469L1437.83 700.725L1192.22 595.523L1267.94 504.469Z" fill="white"/>
<path d="M1439 701.195L1191.8 595.163C1191.74 595.124 1191.68 595.103 1191.61 595.103C1191.54 595.103 1191.48 595.124 1191.42 595.163C1191.39 595.222 1191.38 595.289 1191.38 595.357C1191.38 595.425 1191.39 595.492 1191.42 595.551L1217.2 718H1217.93L1192.17 596.188L1438.73 701.943L1430.96 718H1431.76L1439 703.023V701.195Z" fill="white"/>
<path d="M1439 700.891L1268.59 504.081L1439 449.266V448.435L1267.84 503.5C1267.78 503.517 1267.73 503.552 1267.69 503.601C1267.64 503.649 1267.61 503.71 1267.59 503.777C1267.57 503.836 1267.55 503.903 1267.55 503.97C1267.55 504.038 1267.57 504.105 1267.59 504.164L1439 701.998V700.891Z" fill="white"/>
<path d="M151.07 718L177.077 684.778L180.949 718H181.649L177.677 683.782C177.662 683.708 177.632 683.64 177.588 683.582C177.545 683.524 177.489 683.479 177.427 683.45C177.359 683.428 177.287 683.43 177.22 683.455C177.153 683.479 177.095 683.526 177.052 683.588L150.146 718H151.07Z" fill="white"/>
<path d="M541.724 718H543.023L389.579 605.739L1009.15 397.191L917.612 718H918.337L1010 396.693C1010.02 396.627 1010.03 396.554 1010.02 396.485C1010 396.415 1009.97 396.35 1009.93 396.3C1009.88 396.249 1009.82 396.215 1009.76 396.201C1009.7 396.187 1009.63 396.195 1009.57 396.222L388.655 605.213C388.598 605.249 388.55 605.302 388.517 605.365C388.484 605.428 388.467 605.5 388.467 605.573C388.467 605.646 388.484 605.718 388.517 605.781C388.55 605.844 388.598 605.896 388.655 605.933L541.724 718Z" fill="white"/>
<path d="M918.337 718L1009.82 397.33L1191.15 595.523L1072.63 718H1073.68L1191.9 595.828C1191.93 595.794 1191.96 595.752 1191.99 595.704C1192.01 595.656 1192.02 595.604 1192.02 595.551C1192.05 595.451 1192.05 595.346 1192.02 595.247L1009.92 396.305C1009.87 396.279 1009.81 396.266 1009.75 396.266C1009.69 396.266 1009.63 396.279 1009.57 396.305C1009.46 396.358 1009.37 396.458 1009.32 396.582L917.612 718H918.337Z" fill="white"/>
<path d="M181.649 718L177.751 684.557L233.563 718H235.062L177.602 683.477C177.544 683.443 177.48 683.426 177.414 683.426C177.349 683.426 177.285 683.443 177.227 683.477C177.168 683.516 177.122 683.575 177.095 683.644C177.068 683.714 177.062 683.791 177.077 683.865L180.949 718H181.649Z" fill="white"/>
<path d="M233.563 718H235.062L178.201 683.92L388.555 606.071L434.323 718H435.098L389.08 605.434C389.041 605.344 388.975 605.271 388.892 605.23C388.81 605.19 388.716 605.184 388.63 605.213L177.202 683.45C177.136 683.477 177.079 683.527 177.039 683.591C176.999 683.655 176.977 683.731 176.977 683.809C176.966 683.882 176.977 683.958 177.009 684.023C177.04 684.088 177.091 684.14 177.152 684.169L233.563 718Z" fill="white"/>
<path d="M434.323 718H435.098L389.579 606.68L541.724 718H543.023L388.955 605.268C388.894 605.217 388.819 605.189 388.742 605.189C388.666 605.189 388.591 605.217 388.53 605.268C388.483 605.336 388.458 605.419 388.458 605.504C388.458 605.589 388.483 605.671 388.53 605.739L434.323 718Z" fill="white"/>
<path d="M180.3 683.837C180.3 684.491 180.124 685.13 179.795 685.673C179.466 686.216 178.999 686.638 178.453 686.886C177.906 687.133 177.306 687.195 176.728 687.064C176.15 686.932 175.621 686.613 175.207 686.146C174.793 685.68 174.514 685.088 174.405 684.445C174.296 683.803 174.362 683.139 174.595 682.538C174.827 681.937 175.216 681.426 175.712 681.071C176.207 680.716 176.787 680.532 177.377 680.543C178.157 680.557 178.9 680.911 179.447 681.527C179.993 682.143 180.3 682.973 180.3 683.837Z" fill="white"/>
<path d="M1194.64 595.523C1194.64 596.175 1194.47 596.812 1194.14 597.354C1193.82 597.895 1193.35 598.318 1192.81 598.567C1192.27 598.816 1191.67 598.882 1191.09 598.755C1190.52 598.627 1189.99 598.314 1189.57 597.853C1189.15 597.392 1188.87 596.805 1188.76 596.166C1188.64 595.527 1188.7 594.865 1188.93 594.263C1189.15 593.661 1189.53 593.146 1190.02 592.784C1190.51 592.422 1191.08 592.229 1191.67 592.229C1192.46 592.236 1193.21 592.586 1193.77 593.202C1194.32 593.818 1194.64 594.652 1194.64 595.523Z" fill="white"/>
<path d="M1194.64 595.523C1194.64 596.175 1194.47 596.812 1194.14 597.354C1193.82 597.895 1193.35 598.318 1192.81 598.567C1192.27 598.816 1191.67 598.882 1191.09 598.755C1190.52 598.627 1189.99 598.314 1189.57 597.853C1189.15 597.392 1188.87 596.805 1188.76 596.166C1188.64 595.527 1188.7 594.865 1188.93 594.263C1189.15 593.661 1189.53 593.146 1190.02 592.784C1190.51 592.422 1191.08 592.229 1191.67 592.229C1192.46 592.236 1193.21 592.586 1193.77 593.202C1194.32 593.818 1194.64 594.652 1194.64 595.523Z" fill="white"/>
<path d="M1270.92 503.887C1270.92 504.539 1270.74 505.176 1270.42 505.718C1270.09 506.26 1269.62 506.682 1269.08 506.931C1268.54 507.18 1267.94 507.246 1267.36 507.119C1266.79 506.991 1266.26 506.678 1265.84 506.217C1265.43 505.756 1265.14 505.169 1265.03 504.53C1264.91 503.891 1264.97 503.229 1265.2 502.627C1265.42 502.025 1265.8 501.51 1266.29 501.148C1266.78 500.786 1267.36 500.593 1267.94 500.593C1268.73 500.593 1269.49 500.94 1270.05 501.558C1270.6 502.176 1270.92 503.014 1270.92 503.887Z" fill="white"/>
<path d="M1194.64 595.523C1194.64 596.175 1194.47 596.812 1194.14 597.354C1193.82 597.895 1193.35 598.318 1192.81 598.567C1192.27 598.816 1191.67 598.882 1191.09 598.755C1190.52 598.627 1189.99 598.314 1189.57 597.853C1189.15 597.392 1188.87 596.805 1188.76 596.166C1188.64 595.527 1188.7 594.865 1188.93 594.263C1189.15 593.661 1189.53 593.146 1190.02 592.784C1190.51 592.422 1191.08 592.229 1191.67 592.229C1192.46 592.236 1193.21 592.586 1193.77 593.202C1194.32 593.818 1194.64 594.652 1194.64 595.523Z" fill="white"/>
<path d="M1270.92 503.887C1270.92 504.539 1270.74 505.176 1270.42 505.718C1270.09 506.26 1269.62 506.682 1269.08 506.931C1268.54 507.18 1267.94 507.246 1267.36 507.119C1266.79 506.991 1266.26 506.678 1265.84 506.217C1265.43 505.756 1265.14 505.169 1265.03 504.53C1264.91 503.891 1264.97 503.229 1265.2 502.627C1265.42 502.025 1265.8 501.51 1266.29 501.148C1266.78 500.786 1267.36 500.593 1267.94 500.593C1268.73 500.593 1269.49 500.94 1270.05 501.558C1270.6 502.176 1270.92 503.014 1270.92 503.887Z" fill="white"/>
<path d="M180.3 683.837C180.3 684.491 180.124 685.13 179.795 685.673C179.466 686.216 178.999 686.638 178.453 686.886C177.906 687.133 177.306 687.195 176.728 687.064C176.15 686.932 175.621 686.613 175.207 686.146C174.793 685.68 174.514 685.088 174.405 684.445C174.296 683.803 174.362 683.139 174.595 682.538C174.827 681.937 175.216 681.426 175.712 681.071C176.207 680.716 176.787 680.532 177.377 680.543C178.157 680.557 178.9 680.911 179.447 681.527C179.993 682.143 180.3 682.973 180.3 683.837Z" fill="white"/>
<path d="M1012.65 396.582C1012.65 397.234 1012.47 397.871 1012.15 398.412C1011.82 398.954 1011.35 399.376 1010.81 399.626C1010.27 399.875 1009.67 399.94 1009.09 399.813C1008.52 399.686 1007.99 399.372 1007.57 398.912C1007.16 398.451 1006.87 397.864 1006.76 397.225C1006.64 396.586 1006.7 395.923 1006.93 395.321C1007.15 394.719 1007.53 394.205 1008.02 393.843C1008.51 393.481 1009.09 393.288 1009.67 393.288C1010.46 393.288 1011.22 393.635 1011.78 394.253C1012.33 394.87 1012.65 395.708 1012.65 396.582Z" fill="white"/>
<path d="M391.728 605.601C391.728 606.252 391.553 606.889 391.227 607.431C390.9 607.973 390.436 608.395 389.893 608.644C389.349 608.894 388.752 608.959 388.175 608.832C387.598 608.705 387.068 608.391 386.653 607.93C386.237 607.469 385.954 606.882 385.839 606.243C385.724 605.604 385.783 604.942 386.008 604.34C386.233 603.738 386.614 603.223 387.103 602.861C387.592 602.499 388.167 602.306 388.755 602.306C389.543 602.306 390.299 602.653 390.857 603.271C391.415 603.889 391.728 604.727 391.728 605.601Z" fill="white"/>
<path d="M1012.65 396.582C1012.65 397.234 1012.47 397.871 1012.15 398.412C1011.82 398.954 1011.35 399.376 1010.81 399.626C1010.27 399.875 1009.67 399.94 1009.09 399.813C1008.52 399.686 1007.99 399.372 1007.57 398.912C1007.16 398.451 1006.87 397.864 1006.76 397.225C1006.64 396.586 1006.7 395.923 1006.93 395.321C1007.15 394.719 1007.53 394.205 1008.02 393.843C1008.51 393.481 1009.09 393.288 1009.67 393.288C1010.46 393.288 1011.22 393.635 1011.78 394.253C1012.33 394.87 1012.65 395.708 1012.65 396.582Z" fill="white"/>
<path d="M1194.64 595.523C1194.64 596.175 1194.47 596.812 1194.14 597.354C1193.82 597.895 1193.35 598.318 1192.81 598.567C1192.27 598.816 1191.67 598.882 1191.09 598.755C1190.52 598.627 1189.99 598.314 1189.57 597.853C1189.15 597.392 1188.87 596.805 1188.76 596.166C1188.64 595.527 1188.7 594.865 1188.93 594.263C1189.15 593.661 1189.53 593.146 1190.02 592.784C1190.51 592.422 1191.08 592.229 1191.67 592.229C1192.46 592.236 1193.21 592.586 1193.77 593.202C1194.32 593.818 1194.64 594.652 1194.64 595.523Z" fill="white"/>
<path d="M180.3 683.837C180.3 684.491 180.124 685.13 179.795 685.673C179.466 686.216 178.999 686.638 178.453 686.886C177.906 687.133 177.306 687.195 176.728 687.064C176.15 686.932 175.621 686.613 175.207 686.146C174.793 685.68 174.514 685.088 174.405 684.445C174.296 683.803 174.362 683.139 174.595 682.538C174.827 681.937 175.216 681.426 175.712 681.071C176.207 680.716 176.787 680.532 177.377 680.543C178.157 680.557 178.9 680.911 179.447 681.527C179.993 682.143 180.3 682.973 180.3 683.837Z" fill="white"/>
<path d="M391.728 605.601C391.728 606.252 391.553 606.889 391.227 607.431C390.9 607.973 390.436 608.395 389.893 608.644C389.349 608.894 388.752 608.959 388.175 608.832C387.598 608.705 387.068 608.391 386.653 607.93C386.237 607.469 385.954 606.882 385.839 606.243C385.724 605.604 385.783 604.942 386.008 604.34C386.233 603.738 386.614 603.223 387.103 602.861C387.592 602.499 388.167 602.306 388.755 602.306C389.543 602.306 390.299 602.653 390.857 603.271C391.415 603.889 391.728 604.727 391.728 605.601Z" fill="white"/>
<path d="M180.3 683.837C180.3 684.491 180.124 685.13 179.795 685.673C179.466 686.216 178.999 686.638 178.453 686.886C177.906 687.133 177.306 687.195 176.728 687.064C176.15 686.932 175.621 686.613 175.207 686.146C174.793 685.68 174.514 685.088 174.405 684.445C174.296 683.803 174.362 683.139 174.595 682.538C174.827 681.937 175.216 681.426 175.712 681.071C176.207 680.716 176.787 680.532 177.377 680.543C178.157 680.557 178.9 680.911 179.447 681.527C179.993 682.143 180.3 682.973 180.3 683.837Z" fill="white"/>
<path d="M391.728 605.601C391.728 606.252 391.553 606.889 391.227 607.431C390.9 607.973 390.436 608.395 389.893 608.644C389.349 608.894 388.752 608.959 388.175 608.832C387.598 608.705 387.068 608.391 386.653 607.93C386.237 607.469 385.954 606.882 385.839 606.243C385.724 605.604 385.783 604.942 386.008 604.34C386.233 603.738 386.614 603.223 387.103 602.861C387.592 602.499 388.167 602.306 388.755 602.306C389.543 602.306 390.299 602.653 390.857 603.271C391.415 603.889 391.728 604.727 391.728 605.601Z" fill="white"/>
</g>
</g>
<defs>
<radialGradient id="paint0_radial_19_1561" cx="0" cy="0" r="1" gradientUnits="userSpaceOnUse" gradientTransform="translate(1139 353.946) rotate(0.307288) scale(239.309 125.748)">
<stop stop-color="#002336"/>
<stop offset="0.04" stop-color="#002132"/>
<stop offset="0.42" stop-color="#000F17"/>
<stop offset="0.75" stop-color="#000406"/>
<stop offset="1"/>
</radialGradient>
</defs>
</svg>
