<svg width="500" height="500" viewBox="0 0 500 500" fill="none" xmlns="http://www.w3.org/2000/svg">
<g filter="url(#filter0_d_1975_29678)">
<path d="M249.05 486.05C379.174 486.05 484.66 425.147 484.66 350.02C484.66 274.893 379.174 213.99 249.05 213.99C118.926 213.99 13.4399 274.893 13.4399 350.02C13.4399 425.147 118.926 486.05 249.05 486.05Z" fill="#F3ECFF"/>
</g>
<path d="M218.44 356.71L253.38 336.51C256.98 334.43 258.78 331.7 258.78 328.98C258.78 326.26 258.78 324.12 258.78 324.12L222.53 303.68C221.521 303.022 220.68 302.136 220.076 301.094C219.472 300.052 219.12 298.883 219.05 297.68V260.39L158.05 295.65V332.92C158.12 334.123 158.472 335.292 159.076 336.334C159.68 337.376 160.521 338.262 161.53 338.92L192.37 356.69C199.56 360.87 211.24 360.87 218.44 356.71Z" fill="#2F2E41"/>
<path d="M172.7 340.54V345.38L161.51 338.94C160.503 338.281 159.664 337.395 159.062 336.353C158.459 335.311 158.109 334.142 158.04 332.94V295.65L169.66 288.94C169.91 291.89 170.17 294.94 170.41 297.94L162.26 302.66V330.5C162.325 331.703 162.673 332.873 163.276 333.916C163.879 334.958 164.72 335.844 165.73 336.5L172.7 340.54Z" fill="#2F2E41"/>
<path d="M162.25 330.49C162.318 331.693 162.668 332.864 163.273 333.906C163.878 334.948 164.719 335.834 165.73 336.49L192.35 351.83C199.56 355.99 211.24 355.99 218.44 351.83L253.39 331.63C260.6 327.48 260.6 320.74 253.39 316.63L226.75 301.28C225.74 300.623 224.899 299.738 224.294 298.695C223.69 297.653 223.339 296.483 223.27 295.28V267.38L162.27 302.64L162.25 330.49Z" fill="#3F3D56"/>
<path d="M233.84 305.35L226.76 301.26C225.75 300.603 224.909 299.718 224.304 298.675C223.7 297.633 223.349 296.463 223.28 295.26V267.38L162.28 302.64V330.49C162.348 331.693 162.698 332.864 163.303 333.906C163.908 334.948 164.749 335.834 165.76 336.49L172.76 340.49L233.84 305.35Z" fill="#3F3D56"/>
<path d="M258.79 324.12V329C258.79 331.73 256.98 334.44 253.39 336.53L218.45 356.7C214.62 358.747 210.342 359.809 206 359.79V355C210.342 355.019 214.62 353.957 218.45 351.91L253.39 331.7C257 329.58 258.79 326.85 258.79 324.12Z" fill="#37474F"/>
<path d="M64.2702 372.33C65.5891 372.968 67.0397 373.286 68.5044 373.258C69.969 373.23 71.4065 372.857 72.7002 372.17L308.7 235.92C309.967 235.096 311.021 233.984 311.777 232.676C312.533 231.367 312.969 229.899 313.05 228.39V43.2801C313.002 41.8198 312.609 40.3916 311.906 39.1112C311.202 37.8307 310.207 36.7341 309 35.9101C307.683 35.2724 306.234 34.9546 304.771 34.9824C303.308 35.0102 301.872 35.3829 300.58 36.0701L64.5802 172.32C63.3158 173.143 62.2636 174.253 61.5094 175.56C60.7552 176.867 60.3204 178.333 60.2402 179.84V365C60.296 366.451 60.6892 367.869 61.3888 369.141C62.0884 370.414 63.0749 371.506 64.2702 372.33Z" fill="#2F2E41"/>
<path d="M72.6999 372.16L308.7 235.92C309.964 235.094 311.016 233.982 311.77 232.674C312.524 231.365 312.959 229.898 313.04 228.39V43.28C313.04 40.51 311.1 39.38 308.7 40.77L72.6999 177C71.4339 177.825 70.3802 178.937 69.6244 180.245C68.8686 181.553 68.4319 183.021 68.3499 184.53V369.63C68.3499 372.43 70.2999 373.55 72.6999 372.16Z" fill="#3F3D56"/>
<path d="M72.0599 377.13C70.8252 377.661 69.4912 377.921 68.1476 377.893C66.804 377.866 65.4818 377.551 64.2699 376.97C63.058 376.144 62.0572 375.045 61.3485 373.762C60.6397 372.478 60.2429 371.045 60.1899 369.58V358L68.3499 362.72V374.3C68.3499 376.83 69.9999 378 72.0599 377.13Z" fill="#2F2E41"/>
<path d="M68.3499 362.72V374.29C68.3499 377.06 70.3499 378.19 72.6999 376.8L308.7 240.55C309.959 239.718 311.005 238.601 311.752 237.289C312.499 235.977 312.926 234.508 313 233V221.41L68.3499 362.72Z" fill="#3F3D56"/>
<path d="M76.51 340.91V187.25C76.56 186.346 76.8224 185.467 77.2759 184.683C77.7293 183.899 78.3611 183.234 79.12 182.74L302.27 53.9C303.71 53.07 304.88 53.74 304.88 55.4V209.06C304.832 209.966 304.57 210.847 304.116 211.633C303.663 212.418 303.03 213.085 302.27 213.58L79.11 342.42C77.67 343.25 76.51 342.57 76.51 340.91Z" fill="#D9D5EA"/>
<path d="M76.51 340.91V187.25C76.56 186.346 76.8224 185.467 77.2759 184.683C77.7293 183.899 78.3611 183.234 79.12 182.74L302.27 53.9C303.71 53.07 304.88 53.74 304.88 55.4V209.06C304.832 209.966 304.57 210.847 304.116 211.633C303.663 212.418 303.03 213.085 302.27 213.58L79.11 342.42C77.67 343.25 76.51 342.57 76.51 340.91Z" fill="#D9D5EA"/>
<path d="M190.69 296.39C189.647 297.076 188.779 297.997 188.156 299.079C187.532 300.161 187.171 301.373 187.1 302.62C187.1 304.91 188.71 305.84 190.69 304.69C191.738 304.01 192.61 303.093 193.236 302.012C193.862 300.931 194.223 299.717 194.29 298.47C194.29 296.17 192.68 295.24 190.69 296.39Z" fill="#4C3794"/>
<path d="M122 196.15L255.38 119.15L260.72 122.23C261.45 122.708 262.057 123.35 262.493 124.106C262.929 124.862 263.181 125.709 263.23 126.58V225C263.181 225.87 262.929 226.716 262.493 227.469C262.057 228.223 261.45 228.864 260.72 229.34L132.31 303.42C131.533 303.807 130.678 304.008 129.81 304.008C128.942 304.008 128.087 303.807 127.31 303.42L124.48 301.78C123.75 301.304 123.143 300.663 122.707 299.909C122.271 299.156 122.018 298.31 121.97 297.44L122 196.15Z" fill="#6C63FF"/>
<path opacity="0.2" d="M122 196.15L255.38 119.15L260.72 122.23C261.45 122.708 262.057 123.35 262.493 124.106C262.929 124.862 263.181 125.709 263.23 126.58V225C263.181 225.87 262.929 226.716 262.493 227.469C262.057 228.223 261.45 228.864 260.72 229.34L132.31 303.42C131.533 303.807 130.678 304.008 129.81 304.008C128.942 304.008 128.087 303.807 127.31 303.42L124.48 301.78C123.75 301.304 123.143 300.663 122.707 299.909C122.271 299.156 122.018 298.31 121.97 297.44L122 196.15Z" fill="black"/>
<path d="M254.6 110.49L255.14 110.19L253.07 108.99C252.894 108.889 252.71 108.802 252.52 108.73L193.82 87C193.012 86.7382 192.142 86.7363 191.333 86.9946C190.524 87.2529 189.817 87.7584 189.31 88.44L123.65 184.3C122.623 185.951 122.037 187.838 121.95 189.78V196.15L123.95 197.33L255.29 119.14V112.77C255.279 111.96 255.04 111.17 254.6 110.49Z" fill="#6C63FF"/>
<path opacity="0.1" d="M192 88.87C191.739 89.0746 191.509 89.3173 191.32 89.59L125.65 185.48C125.11 186.328 124.699 187.252 124.43 188.22L122.43 187.04C122.578 186.547 122.755 186.062 122.96 185.59C123.05 185.39 123.14 185.2 123.24 185.01V184.92C123.344 184.719 123.461 184.526 123.59 184.34L189.25 88.45C189.349 88.3079 189.459 88.1741 189.58 88.05L189.93 87.73L192 88.87Z" fill="black"/>
<path opacity="0.35" d="M255.12 110.18C254.943 110.072 254.755 109.982 254.56 109.91L195.85 88.15C195.205 87.9353 194.515 87.8888 193.847 88.0148C193.178 88.1407 192.553 88.4351 192.03 88.87L190.03 87.69C190.557 87.2592 191.184 86.9676 191.853 86.8418C192.522 86.716 193.212 86.7601 193.86 86.97L252.56 108.72C252.752 108.792 252.936 108.882 253.11 108.99L255.12 110.18Z" fill="white"/>
<path d="M123.3 184.88C123.406 184.681 123.523 184.487 123.65 184.3C123.523 184.487 123.406 184.681 123.3 184.88Z" fill="#4C3794"/>
<path d="M189.64 87.9999L189.99 87.6799L189.64 87.9999Z" fill="#6C63FF"/>
<path d="M122.42 187.05C122.566 186.553 122.743 186.065 122.95 185.59C122.743 186.065 122.566 186.553 122.42 187.05Z" fill="#6C63FF"/>
<path d="M123 185.55C123.09 185.35 123.18 185.16 123.28 184.97C123.15 185.16 123.06 185.35 123 185.55Z" fill="#6C63FF"/>
<path opacity="0.2" d="M123.25 185C123.247 184.97 123.247 184.94 123.25 184.91C123.247 184.94 123.247 184.97 123.25 185Z" fill="black"/>
<path opacity="0.2" d="M189.31 88.41C189.412 88.2699 189.522 88.1363 189.64 88.01C189.522 88.1363 189.412 88.2699 189.31 88.41Z" fill="black"/>
<path d="M191.35 89.5901L125.68 185.48C124.658 187.146 124.079 189.047 124 191V197.37L257.38 120.37V114C257.333 113.137 257.044 112.305 256.547 111.598C256.051 110.891 255.366 110.337 254.57 110L195.85 88.1601C195.045 87.8901 194.175 87.8832 193.366 88.1402C192.558 88.3973 191.851 88.9051 191.35 89.5901Z" fill="#6C63FF"/>
<path opacity="0.05" d="M257.37 114C257.343 113.202 257.098 112.427 256.66 111.76L124.46 188.27C124.178 189.154 124.023 190.073 124 191V197.37L257.38 120.37L257.37 114Z" fill="black"/>
<path d="M181.11 209.46C183.812 215.844 185.203 222.707 185.2 229.64V233.53L135.38 259.53V199.65C135.377 198.495 135.508 197.344 135.77 196.22C135.87 195.78 136 195.35 136.13 194.92L136.35 194.28C136.585 193.647 136.866 193.032 137.19 192.44C137.722 191.449 138.366 190.523 139.11 189.68C139.32 189.43 139.55 189.19 139.78 188.96C140.01 188.73 140.26 188.5 140.51 188.28C142.896 186.173 145.883 184.869 149.05 184.551C152.217 184.233 155.403 184.919 158.16 186.51C158.16 186.51 159.04 186.15 160.66 185.51C167.921 190.025 173.959 196.258 178.24 203.66C179.312 205.534 180.271 207.471 181.11 209.46Z" fill="#E8ECF2"/>
<path d="M341.11 362.75L232.81 425.42V419.54L341.1 356.87L341.11 362.75Z" fill="#CFD7E8"/>
<path d="M181.11 209.46C180.27 207.474 179.312 205.541 178.24 203.67C177.447 202.303 176.593 200.97 175.68 199.67C175.43 199.31 175.17 198.95 174.9 198.6C174.63 198.25 174.42 197.95 174.17 197.6C173.92 197.25 173.75 197.06 173.53 196.8L173.32 196.54L172.5 195.54C172.381 195.39 172.255 195.246 172.12 195.11C171.91 194.86 171.68 194.61 171.46 194.37C170.96 193.82 170.46 193.28 169.91 192.77C169.61 192.46 169.31 192.16 169 191.88C168.915 191.788 168.825 191.701 168.73 191.62L167.89 190.85C167.56 190.55 167.23 190.26 166.89 189.98C166.55 189.7 166.34 189.51 166.05 189.28C165.916 189.159 165.776 189.045 165.63 188.94C165.31 188.68 164.98 188.43 164.63 188.18C164.28 187.93 163.78 187.54 163.34 187.18C162.9 186.82 162.45 186.55 162 186.26L160.64 185.38L160.38 185.22L159.21 184.52C158.86 184.32 158.5 184.13 158.15 183.96C157.54 183.665 156.916 183.402 156.28 183.17C155.586 182.925 154.878 182.722 154.16 182.56L153.45 182.42C152.505 182.261 151.548 182.181 150.59 182.18H149.82C149.442 182.19 149.065 182.22 148.69 182.27L148.06 182.35L147.65 182.41C147.492 182.43 147.335 182.46 147.18 182.5H147.12L146.42 182.66C146.241 182.701 146.064 182.751 145.89 182.81L145.62 182.89C145.433 182.943 145.243 183.003 145.05 183.07C144.539 183.234 144.038 183.427 143.55 183.65C143.25 183.78 142.95 183.93 142.65 184.08C142.558 184.117 142.471 184.164 142.39 184.22C142.23 184.3 142.06 184.39 141.9 184.49L141.43 184.78C140.854 185.13 140.3 185.514 139.77 185.93C139.77 185.93 139.71 185.98 139.69 186C139.42 186.22 139.15 186.44 138.88 186.69L138.32 187.22C138.21 187.32 138.11 187.43 138.01 187.53C137.515 188.049 137.051 188.596 136.62 189.17C136.44 189.41 136.27 189.65 136.11 189.9C135.95 190.15 135.73 190.48 135.55 190.79C135.371 191.081 135.207 191.382 135.06 191.69C134.848 192.1 134.658 192.52 134.49 192.95C134.41 193.15 134.32 193.36 134.25 193.58C134.18 193.8 134.18 193.77 134.15 193.86C134.04 194.18 133.95 194.5 133.86 194.86C133.77 195.22 133.69 195.5 133.63 195.86C133.575 196.078 133.532 196.298 133.5 196.52C133.495 196.603 133.495 196.687 133.5 196.77C133.5 196.99 133.43 197.2 133.41 197.41C133.39 197.62 133.35 197.98 133.34 198.27C133.33 198.56 133.34 199.06 133.34 199.47V247.24H138.48V199.66C138.477 197.521 139.037 195.418 140.105 193.564C141.173 191.711 142.711 190.172 144.564 189.102C146.417 188.032 148.519 187.469 150.658 187.471C152.797 187.472 154.899 188.038 156.75 189.11C165.399 194.126 172.223 201.77 176.23 210.93L182.33 212.38C181.89 211.4 181.51 210.42 181.11 209.46Z" fill="#CFD7E8"/>
<path d="M259.8 226.27C259.76 226.341 259.713 226.408 259.66 226.47L204.07 208.85C201.961 207.918 199.586 207.778 197.381 208.455C195.177 209.133 193.291 210.584 192.07 212.54L132.65 300.86L130.45 302.13C130.205 302.301 129.921 302.408 129.624 302.441C129.327 302.474 129.027 302.433 128.75 302.32L189.86 211.32C191.085 209.368 192.971 207.921 195.173 207.242C197.375 206.563 199.748 206.697 201.86 207.62L259.8 226.27Z" fill="#6C63FF"/>
<path opacity="0.4" d="M186.59 221.21L186.73 221.09L132.64 300.86L130.44 302.13C130.194 302.298 129.91 302.404 129.614 302.437C129.317 302.47 129.017 302.43 128.74 302.32L184.47 219.92L186.59 221.21Z" fill="white"/>
<path opacity="0.4" d="M259.8 226.27C259.76 226.341 259.713 226.408 259.66 226.47L204.07 208.84C201.96 207.906 199.583 207.767 197.378 208.447C195.173 209.127 193.288 210.58 192.07 212.54L189.87 211.26C191.096 209.308 192.982 207.863 195.185 207.187C197.388 206.512 199.761 206.651 201.87 207.58L259.8 226.27Z" fill="white"/>
<path d="M263.13 125.94C263.01 125.22 262.63 125.02 262.13 125.36C261.883 125.544 261.667 125.767 261.49 126.02L261.21 126.41L206.36 209.8L198.17 221.21C197.643 221.875 196.944 222.383 196.15 222.681C195.355 222.979 194.494 223.055 193.66 222.9L186.59 221.22L132.59 201.35C132.227 201.276 131.853 201.276 131.49 201.35C131.349 201.378 131.212 201.422 131.08 201.48L133.08 200.3L184.82 219.3L191.63 221.74C192.464 221.897 193.326 221.822 194.121 221.524C194.916 221.226 195.614 220.716 196.14 220.05L204.33 208.65L259.45 124.87C259.618 124.642 259.829 124.448 260.07 124.3L255.3 121.55L257.3 120.4L260.6 122.3C261.243 122.708 261.798 123.24 262.232 123.865C262.667 124.49 262.972 125.195 263.13 125.94Z" fill="#6C63FF"/>
<path opacity="0.4" d="M206.36 209.79L198.17 221.2C197.643 221.865 196.944 222.373 196.15 222.671C195.355 222.969 194.494 223.045 193.66 222.89L186.59 221.21L186.73 221.09L187.07 220.55L191.7 221.65C192.534 221.807 193.396 221.732 194.191 221.434C194.986 221.136 195.684 220.627 196.21 219.96L204.32 208.68L206.36 209.79Z" fill="white"/>
<path opacity="0.1" d="M260.67 122.21L257.37 120.31L255.37 121.46L260.14 124.21C259.897 124.356 259.686 124.55 259.52 124.78L204.4 208.56L204.32 208.67L206.32 209.78L261.17 126.39L261.45 126C261.627 125.747 261.843 125.524 262.09 125.34C262.58 125 262.96 125.2 263.09 125.92C262.954 125.172 262.669 124.458 262.254 123.821C261.838 123.184 261.3 122.637 260.67 122.21Z" fill="black"/>
<path d="M133.72 202.94L122 196.15V297.44C122.048 298.31 122.301 299.156 122.737 299.91C123.173 300.663 123.78 301.304 124.51 301.78L127.34 303.41C128.116 303.799 128.972 304.001 129.84 304.001C130.708 304.001 131.564 303.799 132.34 303.41L133.75 302.59L133.72 202.94Z" fill="#6C63FF"/>
<path opacity="0.15" d="M133.72 202.94L122 196.15V297.44C122.048 298.31 122.301 299.156 122.737 299.91C123.173 300.663 123.78 301.304 124.51 301.78L127.34 303.41C128.116 303.799 128.972 304.001 129.84 304.001C130.708 304.001 131.564 303.799 132.34 303.41L133.75 302.59L133.72 202.94Z" fill="black"/>
<path d="M261.21 126.41V223.73C261.184 224.631 260.914 225.509 260.43 226.27C260.063 226.915 259.561 227.474 258.96 227.91L258.87 227.97L258.7 228.08L130.34 302.18C130.186 302.275 130.022 302.352 129.85 302.41C129.839 302.26 129.839 302.11 129.85 301.96V203.56C129.828 203.208 129.891 202.855 130.035 202.533C130.18 202.21 130.4 201.928 130.677 201.71C130.955 201.491 131.281 201.343 131.628 201.279C131.975 201.215 132.333 201.236 132.67 201.34L186.67 221.21L193.74 222.89C194.574 223.045 195.435 222.969 196.23 222.671C197.024 222.373 197.723 221.865 198.25 221.2L206.44 209.79L261.21 126.41Z" fill="#4F5665"/>
<path d="M263.18 126.57V225C263.148 225.901 262.879 226.777 262.4 227.54C262.027 228.184 261.527 228.746 260.93 229.19H260.83C260.779 229.23 260.726 229.267 260.67 229.3L132.31 303.4C132.065 303.574 131.779 303.684 131.481 303.719C131.182 303.754 130.879 303.713 130.6 303.6C130.387 303.476 130.207 303.302 130.077 303.093C129.946 302.883 129.868 302.646 129.85 302.4C129.839 302.25 129.839 302.1 129.85 301.95V203.55C129.828 203.198 129.891 202.845 130.035 202.523C130.18 202.201 130.4 201.918 130.677 201.7C130.955 201.481 131.281 201.334 131.628 201.269C131.975 201.205 132.333 201.226 132.67 201.33L186.67 221.2L193.74 222.88C194.574 223.035 195.435 222.959 196.23 222.661C197.024 222.363 197.723 221.855 198.25 221.19L206.44 209.78L261.29 126.39L261.57 126C262.42 124.73 263.18 125 263.18 126.57Z" fill="#6C63FF"/>
<path d="M260.67 229.31L260.84 229.2L260.93 229.14C261.529 228.702 262.03 228.143 262.4 227.5C262.873 226.749 263.142 225.887 263.18 225L206.37 209.8L244.37 238.7L260.67 229.31Z" fill="#4C3794"/>
<path opacity="0.2" d="M260.67 229.31L260.84 229.2L260.93 229.14C261.529 228.702 262.03 228.143 262.4 227.5C262.873 226.749 263.142 225.887 263.18 225L206.37 209.8L244.37 238.7L260.67 229.31Z" fill="black"/>
<path d="M129.8 302C129.763 302.32 129.817 302.645 129.955 302.936C130.093 303.228 130.309 303.475 130.58 303.65C130.857 303.768 131.16 303.813 131.46 303.78C131.76 303.746 132.045 303.636 132.29 303.46L176.49 277.95L186.58 221.26L129.78 300.38L129.8 302Z" fill="#6C63FF"/>
<path opacity="0.15" d="M192 212.53L130.54 303.61C130.269 303.435 130.053 303.188 129.915 302.896C129.777 302.605 129.723 302.28 129.76 301.96V300.33L189.76 211.33L192 212.53Z" fill="black"/>
<path d="M262.4 227.5C262.03 228.143 261.529 228.702 260.93 229.14L260.84 229.2L132.31 303.41C132.066 303.586 131.78 303.696 131.48 303.73C131.18 303.763 130.877 303.718 130.6 303.6L192.07 212.51C193.301 210.542 195.2 209.084 197.418 208.403C199.637 207.721 202.027 207.862 204.15 208.8L262.4 227.5Z" fill="#6C63FF"/>
<path d="M262.4 227.5C262.033 228.145 261.532 228.705 260.93 229.14L260.84 229.2L132.31 303.41C132.063 303.581 131.778 303.688 131.479 303.721C131.181 303.754 130.879 303.713 130.6 303.6L132.31 300.88L258.6 228L258.7 227.94C259.232 227.55 259.684 227.061 260.03 226.5L262.4 227.5Z" fill="#6C63FF"/>
<path opacity="0.15" d="M122.42 187L124.42 188.18C124.146 189.095 124.005 190.045 124 191V197.36L122 196.18V189.81C122.006 188.858 122.147 187.912 122.42 187Z" fill="black"/>
<path d="M133.15 200.26L131.11 201.44L129.05 200.25L123.98 197.33L125.95 196.16L133.15 200.26Z" fill="#6C63FF"/>
<path opacity="0.1" d="M133.24 200.3L126 196.16L124 197.33L129.07 200.25L131.13 201.44L131.52 201.32C131.883 201.246 132.257 201.246 132.62 201.32L136.72 202.84L183.83 220.18L184.57 219.09L133.24 200.3Z" fill="black"/>
<path d="M340.86 357.06L232.57 419.73L210.93 407.23C203.024 402.676 196.457 396.118 191.893 388.218C187.328 380.318 184.927 371.354 184.93 362.23V229.83C184.936 222.898 183.549 216.035 180.85 209.65C180.01 207.664 179.052 205.731 177.98 203.86C173.425 195.968 166.872 189.415 158.98 184.86C156.482 183.392 153.651 182.583 150.754 182.51C147.857 182.436 144.989 183.1 142.42 184.44L155.32 177L202.9 149.53L249.85 122.25L249.99 122.17C252.612 120.639 255.594 119.832 258.63 119.832C261.666 119.832 264.648 120.639 267.27 122.17C275.174 126.727 281.739 133.285 286.303 141.184C290.867 149.084 293.27 158.047 293.27 167.17V299.58C293.27 308.704 295.673 317.666 300.237 325.566C304.801 333.466 311.366 340.024 319.27 344.58L340.86 357.06Z" fill="white"/>
<path d="M258.64 119.83V120.83C261.499 120.834 264.306 121.6 266.77 123.05C274.516 127.517 280.948 133.946 285.419 141.69C289.891 149.434 292.243 158.218 292.24 167.16V299.58C292.257 308.87 294.71 317.993 299.355 326.038C303.999 334.084 310.673 340.77 318.71 345.43L338.86 357.07L232.57 418.57L211.42 406.36C203.692 401.879 197.276 395.448 192.815 387.708C188.354 379.969 186.004 371.193 186 362.26V229.83C185.996 220.534 183.542 211.404 178.887 203.358C174.231 195.312 167.537 188.636 159.48 184C156.712 182.374 153.56 181.518 150.35 181.52C150.06 181.52 149.77 181.52 149.47 181.52L155.82 177.86L203.4 150.38L250.4 123.1L250.52 123.03C252.996 121.591 255.806 120.829 258.67 120.82V119.82L258.64 119.83ZM258.67 119.82C255.631 119.829 252.648 120.636 250.02 122.16L249.88 122.24L202.9 149.53L155.32 177L142.42 184.44C144.872 183.176 147.591 182.514 150.35 182.51C153.384 182.512 156.363 183.323 158.98 184.86C166.872 189.415 173.425 195.968 177.98 203.86C179.052 205.731 180.01 207.664 180.85 209.65C183.573 216.03 184.984 222.893 185 229.83V362.26C184.997 371.384 187.398 380.348 191.963 388.248C196.527 396.148 203.094 402.706 211 407.26L232.64 419.76L340.93 357.09L319.28 344.59C311.376 340.034 304.811 333.475 300.247 325.576C295.683 317.676 293.28 308.714 293.28 299.59V167.16C293.28 158.037 290.877 149.074 286.313 141.174C281.749 133.275 275.184 126.717 267.28 122.16C264.661 120.629 261.684 119.818 258.65 119.81L258.67 119.82Z" fill="#CFD7E8"/>
<path d="M232.81 419.54L211.17 407C203.264 402.445 196.699 395.887 192.134 387.987C187.57 380.087 185.168 371.124 185.17 362V229.64C185.158 223.758 184.144 217.921 182.17 212.38L176.07 210.93L176.4 211.69C178.779 217.375 180.003 223.477 180 229.64V362.07C180.018 372.083 182.663 381.916 187.669 390.588C192.675 399.26 199.868 406.467 208.53 411.49L230.28 424L232.81 425.42V419.54Z" fill="#CFD7E8"/>
<path d="M212.51 193.23L259.16 166.32C259.515 166.104 259.783 165.771 259.918 165.379C260.053 164.986 260.047 164.559 259.9 164.17C259.27 162.64 258.55 161.17 257.78 159.67C257.11 158.42 256.4 157.2 255.64 156.01C255.417 155.673 255.073 155.433 254.679 155.34C254.285 155.247 253.871 155.308 253.52 155.51L206.86 182.44C206.7 182.514 206.557 182.619 206.439 182.749C206.321 182.88 206.231 183.033 206.174 183.199C206.117 183.366 206.094 183.542 206.107 183.718C206.12 183.893 206.169 184.064 206.25 184.22L206.91 185.22C208.018 187.003 209.02 188.849 209.91 190.75C210.18 191.34 210.45 191.94 210.7 192.55C210.762 192.723 210.862 192.88 210.991 193.011C211.12 193.142 211.276 193.243 211.448 193.308C211.62 193.373 211.804 193.399 211.988 193.386C212.171 193.372 212.349 193.319 212.51 193.23Z" fill="#E8ECF2"/>
<path d="M182 187.4L268.08 137.72C268.245 137.641 268.388 137.523 268.496 137.375C268.604 137.228 268.675 137.056 268.7 136.875C268.726 136.694 268.707 136.509 268.644 136.337C268.581 136.165 268.476 136.012 268.34 135.89L267.45 135.03C267.123 134.749 266.719 134.574 266.29 134.527C265.862 134.481 265.429 134.566 265.05 134.77L179 184.46C178.827 184.525 178.676 184.636 178.563 184.782C178.45 184.927 178.379 185.101 178.358 185.284C178.337 185.467 178.368 185.652 178.446 185.819C178.524 185.986 178.646 186.128 178.8 186.23L179.68 187.08C179.984 187.371 180.372 187.558 180.788 187.615C181.205 187.673 181.629 187.597 182 187.4Z" fill="#E8ECF2"/>
<path d="M173.12 181.57C172.57 181.19 172.02 180.81 171.45 180.44C170.6 179.89 169.73 179.36 168.84 178.86C168.44 178.627 168.03 178.417 167.61 178.23C166.92 177.91 166.92 177.36 167.61 176.94L253.73 127.22C254.182 126.913 254.682 126.683 255.21 126.54L255.39 126.61C256.247 126.96 257.079 127.367 257.88 127.83C259.22 128.62 260.53 129.47 261.79 130.36C261.941 130.442 262.065 130.566 262.149 130.716C262.232 130.866 262.272 131.037 262.262 131.208C262.253 131.38 262.195 131.545 262.096 131.685C261.996 131.826 261.859 131.935 261.7 132L175.6 181.71C175.21 181.902 174.776 181.99 174.342 181.965C173.907 181.941 173.486 181.805 173.12 181.57Z" fill="#CFD7E8"/>
<path d="M254.1 228.71V191.71C254.1 190.52 254.04 187.38 253.91 186.21C253.784 184.385 253.557 182.569 253.23 180.77C253.214 180.594 253.152 180.426 253.049 180.283C252.947 180.139 252.809 180.025 252.649 179.952C252.488 179.879 252.312 179.849 252.136 179.866C251.961 179.884 251.793 179.947 251.65 180.05L195.22 212.62C194.858 212.855 194.571 213.189 194.394 213.583C194.216 213.977 194.156 214.413 194.22 214.84C194.724 217.68 194.991 220.556 195.02 223.44C195.02 223.61 195.02 228.64 195.02 228.81V262.81C195.02 263.63 195.6 263.97 196.32 263.56L252.81 231C253.192 230.749 253.508 230.41 253.732 230.011C253.957 229.613 254.083 229.167 254.1 228.71Z" fill="#E8ECF2"/>
<path d="M236.86 208.68L227 228.44L230.58 233.13L210.53 216L195 254.06V262.82C195 263.64 195.58 263.98 196.3 263.57L252.81 231C253.187 230.752 253.5 230.42 253.724 230.029C253.948 229.638 254.077 229.2 254.1 228.75V223L236.86 208.68Z" fill="url(#paint0_linear_1975_29678)"/>
<path d="M216 261.58L262.62 234.66C263.34 234.25 263.92 234.58 263.92 235.41V241.79C263.896 242.241 263.766 242.68 263.54 243.071C263.314 243.462 262.999 243.794 262.62 244.04L216 271C215.28 271.41 214.7 271.08 214.7 270.25V263.87C214.717 263.412 214.844 262.965 215.071 262.567C215.297 262.168 215.616 261.83 216 261.58Z" fill="#CFD7E8"/>
<path d="M206.18 281.33L272.49 243.05C273.21 242.63 273.79 242.97 273.79 243.8V245.49C273.766 245.941 273.635 246.38 273.409 246.771C273.183 247.162 272.868 247.494 272.49 247.74L206.18 286C205.46 286.42 204.88 286.08 204.88 285.25V283.56C204.909 283.113 205.042 282.679 205.267 282.292C205.493 281.905 205.805 281.576 206.18 281.33Z" fill="#E8ECF2"/>
<path d="M201.6 293.36L276.18 250.3C276.9 249.89 277.48 250.22 277.48 251.05V252.74C277.456 253.191 277.326 253.63 277.1 254.021C276.874 254.412 276.559 254.744 276.18 254.99L201.6 298.05C200.88 298.46 200.3 298.13 200.3 297.3V295.61C200.325 295.159 200.456 294.721 200.682 294.33C200.908 293.939 201.222 293.607 201.6 293.36Z" fill="#E8ECF2"/>
<path d="M196.34 310.48L219.34 297.2C220.05 296.79 220.63 297.13 220.63 297.95V323.08C220.607 323.53 220.478 323.968 220.254 324.359C220.03 324.75 219.717 325.082 219.34 325.33L196.34 338.61C195.63 339.02 195.05 338.69 195.05 337.86V312.73C195.073 312.28 195.202 311.842 195.426 311.451C195.651 311.06 195.963 310.727 196.34 310.48Z" fill="#D9D5EA"/>
<path d="M227.85 292.29L250.85 279.01C251.57 278.6 252.15 278.94 252.15 279.76V304.9C252.124 305.35 251.993 305.789 251.767 306.179C251.541 306.57 251.227 306.902 250.85 307.15L227.85 320.42C227.13 320.83 226.55 320.5 226.55 319.67V294.54C226.574 294.089 226.704 293.65 226.93 293.259C227.156 292.868 227.471 292.536 227.85 292.29Z" fill="#6F5EA9"/>
<path d="M259.35 274.1L282.35 260.83C283.07 260.41 283.65 260.75 283.65 261.58V286.71C283.626 287.161 283.495 287.6 283.269 287.991C283.043 288.382 282.728 288.714 282.35 288.96L259.35 302.23C258.63 302.64 258.05 302.31 258.05 301.48V276.35C258.074 275.899 258.204 275.46 258.43 275.069C258.656 274.678 258.971 274.346 259.35 274.1Z" fill="#4C3794"/>
<path d="M278.89 305.06L202.73 349.06C202.01 349.47 201.43 349.13 201.43 348.31V346.62C201.456 346.169 201.587 345.731 201.813 345.341C202.039 344.95 202.353 344.617 202.73 344.37L278.89 300.37C279.6 299.96 280.19 300.3 280.19 301.12V302.81C280.166 303.261 280.036 303.7 279.81 304.091C279.584 304.482 279.269 304.814 278.89 305.06Z" fill="#E8ECF2"/>
<path d="M203.11 358.2L279.28 314.2C279.648 313.958 279.947 313.624 280.145 313.231C280.343 312.838 280.435 312.4 280.41 311.96C280.36 311.47 280.32 310.96 280.28 310.48C280.301 310.312 280.27 310.142 280.192 309.991C280.114 309.841 279.992 309.718 279.843 309.638C279.694 309.558 279.524 309.525 279.356 309.543C279.188 309.561 279.029 309.63 278.9 309.74L202.76 353.74C202.383 353.98 202.073 354.311 201.858 354.703C201.643 355.094 201.531 355.533 201.53 355.98C201.53 356.48 201.6 356.98 201.65 357.48C201.647 357.651 201.693 357.818 201.782 357.964C201.87 358.11 201.999 358.227 202.152 358.303C202.305 358.378 202.476 358.409 202.646 358.39C202.815 358.372 202.976 358.306 203.11 358.2Z" fill="#E8ECF2"/>
<path d="M245.08 343.31L198.44 370.24C198.084 370.467 197.808 370.802 197.654 371.195C197.499 371.589 197.474 372.021 197.58 372.43C201.194 383.514 208.428 393.061 218.12 399.54C218.505 399.764 218.94 399.888 219.386 399.901C219.832 399.913 220.273 399.813 220.67 399.61L267.35 372.66C267.506 372.598 267.64 372.49 267.734 372.351C267.828 372.212 267.878 372.048 267.878 371.88C267.878 371.712 267.828 371.548 267.734 371.409C267.64 371.27 267.506 371.162 267.35 371.1C257.667 364.619 250.438 355.076 246.82 344C246.778 343.821 246.693 343.655 246.573 343.516C246.453 343.376 246.301 343.268 246.13 343.2C245.959 343.133 245.775 343.107 245.592 343.126C245.409 343.145 245.233 343.208 245.08 343.31Z" fill="#E8ECF2"/>
<path d="M267.39 371.1C264.377 369.086 261.581 366.764 259.05 364.17C251.27 363.53 238.89 360.95 238.89 360.95L235.26 373.26L243.58 376.19C236.51 376.75 214.73 371.5 214.73 371.5C213.16 378.94 213.24 391.7 213.31 395.9C214.839 397.208 216.446 398.423 218.12 399.54C218.505 399.764 218.94 399.888 219.386 399.901C219.832 399.913 220.273 399.813 220.67 399.61L267.35 372.66C267.508 372.602 267.644 372.498 267.742 372.361C267.84 372.224 267.894 372.061 267.899 371.894C267.903 371.726 267.857 371.56 267.766 371.419C267.675 371.277 267.544 371.166 267.39 371.1Z" fill="url(#paint1_linear_1975_29678)"/>
<path d="M239.69 355.43C240.162 356.164 240.893 356.694 241.737 356.917C242.581 357.139 243.478 357.037 244.25 356.63C244.952 356.179 245.457 355.478 245.663 354.669C245.869 353.859 245.761 353.002 245.36 352.27C244.94 351.512 244.246 350.944 243.419 350.684C242.593 350.423 241.698 350.49 240.92 350.87C240.181 351.338 239.644 352.066 239.416 352.91C239.189 353.755 239.286 354.654 239.69 355.43Z" fill="url(#paint2_linear_1975_29678)"/>
<path d="M264.53 350.84L291.53 335.27C291.698 335.175 291.845 335.046 291.96 334.891C292.076 334.737 292.158 334.56 292.201 334.371C292.244 334.183 292.248 333.988 292.211 333.799C292.175 333.609 292.1 333.429 291.99 333.27C291.07 331.84 290.21 330.36 289.43 328.84C289.346 328.662 289.226 328.503 289.077 328.374C288.928 328.245 288.753 328.149 288.564 328.092C288.375 328.036 288.177 328.02 287.981 328.045C287.786 328.071 287.598 328.137 287.43 328.24L260.47 343.8C260.119 344.006 259.859 344.337 259.742 344.726C259.625 345.116 259.66 345.535 259.84 345.9C260.62 347.42 261.48 348.9 262.4 350.34C262.628 350.675 262.974 350.911 263.368 351.004C263.762 351.097 264.177 351.038 264.53 350.84Z" fill="#CFD7E8"/>
<path d="M264.78 360.07L301.6 338.82C301.763 338.737 301.904 338.616 302.011 338.468C302.118 338.32 302.188 338.148 302.216 337.967C302.243 337.786 302.227 337.601 302.169 337.428C302.11 337.254 302.011 337.097 301.88 336.97L301.12 336.1C300.84 335.793 300.467 335.587 300.058 335.515C299.649 335.443 299.228 335.508 298.86 335.7L262.05 357C261.883 357.085 261.738 357.207 261.627 357.357C261.515 357.507 261.44 357.681 261.407 357.865C261.374 358.049 261.385 358.239 261.437 358.418C261.49 358.598 261.583 358.763 261.71 358.9C261.96 359.19 262.21 359.48 262.47 359.76C262.769 360.056 263.156 360.247 263.573 360.303C263.99 360.359 264.414 360.277 264.78 360.07Z" fill="#E8ECF2"/>
<path d="M267.65 364.74C267.99 365.027 268.323 365.307 268.65 365.58C269.009 365.836 269.431 365.988 269.871 366.018C270.311 366.048 270.75 365.955 271.14 365.75L308 344.51C308.16 344.443 308.297 344.332 308.398 344.191C308.499 344.051 308.559 343.885 308.571 343.712C308.584 343.539 308.548 343.366 308.468 343.212C308.389 343.059 308.268 342.93 308.12 342.84C307.76 342.56 307.42 342.27 307.12 341.99C306.778 341.722 306.367 341.557 305.935 341.514C305.503 341.472 305.067 341.553 304.68 341.75L267.82 363C267.656 363.071 267.515 363.185 267.41 363.329C267.305 363.473 267.24 363.642 267.223 363.82C267.206 363.997 267.236 364.176 267.311 364.338C267.386 364.5 267.503 364.639 267.65 364.74Z" fill="#E8ECF2"/>
<path d="M248.48 392.94L295.16 366C295.56 365.793 296.004 365.685 296.455 365.685C296.906 365.685 297.35 365.793 297.75 366L299.22 366.84C299.94 367.26 299.94 367.93 299.22 368.34L252.54 395.29C252.138 395.497 251.692 395.605 251.24 395.605C250.788 395.605 250.342 395.497 249.94 395.29L248.48 394.45C247.76 394 247.76 393.35 248.48 392.94Z" fill="#E8ECF2"/>
<path d="M261.71 187.32L282.34 176.39C283.06 175.97 283.64 176.31 283.64 177.14V183.52C283.616 183.971 283.485 184.41 283.259 184.801C283.033 185.191 282.718 185.524 282.34 185.77L261.72 196.69C261 197.1 260.42 196.77 260.42 195.94V189.57C260.443 189.12 260.572 188.682 260.796 188.291C261.02 187.9 261.333 187.567 261.71 187.32Z" fill="#E8ECF2"/>
<path d="M262.398 200.283L282.591 190.179C283.371 189.762 284 190.098 284 190.942V197.434C283.974 197.893 283.833 198.339 283.588 198.737C283.344 199.135 283.002 199.473 282.591 199.723L262.409 209.817C261.629 210.244 261 209.898 261 209.053V202.572C261.027 202.115 261.167 201.669 261.41 201.272C261.653 200.874 261.991 200.536 262.398 200.283Z" fill="#E8ECF2"/>
<path d="M384.08 103.62L334.23 132.36C333.799 132.638 333.44 133.014 333.183 133.457C332.926 133.9 332.777 134.398 332.75 134.91V195.42C332.78 195.931 332.931 196.428 333.19 196.869C333.449 197.311 333.809 197.684 334.24 197.96L336.93 199.48C337.395 199.716 337.909 199.839 338.43 199.839C338.951 199.839 339.465 199.716 339.93 199.48L389.78 170.75C390.211 170.47 390.57 170.092 390.827 169.647C391.084 169.203 391.233 168.703 391.26 168.19V107.69C391.231 107.18 391.082 106.684 390.825 106.243C390.567 105.801 390.209 105.427 389.78 105.15L387.08 103.63C386.616 103.392 386.103 103.267 385.581 103.266C385.06 103.264 384.545 103.385 384.08 103.62Z" fill="#4C3794"/>
<path d="M338.41 198.61V138.11C338.437 137.597 338.586 137.097 338.843 136.652C339.1 136.208 339.459 135.83 339.89 135.55L389.74 106.82C390.56 106.35 391.22 106.73 391.22 107.67V168.17C391.193 168.683 391.044 169.182 390.787 169.627C390.53 170.072 390.171 170.45 389.74 170.73L339.89 199.46C339.07 199.93 338.41 199.55 338.41 198.61Z" fill="#4C3794"/>
<path opacity="0.2" d="M391.2 107.4C391.08 106.66 390.48 106.4 389.74 106.82L339.89 135.55C339.467 135.828 339.122 136.21 338.89 136.66L333.25 133.41C333.494 132.998 333.838 132.654 334.25 132.41L384.11 103.67C384.573 103.43 385.088 103.304 385.61 103.304C386.132 103.304 386.646 103.43 387.11 103.67L389.8 105.19C390.175 105.439 390.494 105.765 390.735 106.146C390.977 106.527 391.135 106.954 391.2 107.4Z" fill="black"/>
<path d="M326.12 175.92C325.19 175.37 320.85 172.92 320.62 172.78C320.447 172.673 320.299 172.529 320.188 172.359C320.077 172.188 320.005 171.995 319.977 171.793C319.95 171.592 319.967 171.386 320.028 171.192C320.089 170.998 320.192 170.82 320.33 170.67L332.88 155L338.41 158.17L325.87 173.83C325.737 173.978 325.637 174.153 325.577 174.343C325.517 174.533 325.498 174.734 325.522 174.932C325.545 175.129 325.611 175.32 325.714 175.49C325.817 175.661 325.956 175.807 326.12 175.92Z" fill="#4C3794"/>
<path opacity="0.2" d="M326.12 175.92C325.19 175.37 320.85 172.92 320.62 172.78C320.447 172.673 320.299 172.529 320.188 172.359C320.077 172.188 320.005 171.995 319.977 171.793C319.95 171.592 319.967 171.386 320.028 171.192C320.089 170.998 320.192 170.82 320.33 170.67L332.88 155L338.41 158.17L325.87 173.83C325.737 173.978 325.637 174.153 325.577 174.343C325.517 174.533 325.498 174.734 325.522 174.932C325.545 175.129 325.611 175.32 325.714 175.49C325.817 175.661 325.956 175.807 326.12 175.92Z" fill="black"/>
<path d="M338.41 158.19L325.87 173.85C325.688 174.028 325.561 174.256 325.506 174.505C325.45 174.754 325.468 175.013 325.557 175.253C325.646 175.492 325.802 175.7 326.007 175.852C326.211 176.004 326.456 176.094 326.71 176.11L338.41 177.38L342 167.5L338.41 158.19Z" fill="#4C3794"/>
<path d="M379.81 148.16C379.71 149.641 379.434 151.104 378.99 152.52C378.599 153.793 378.073 155.02 377.42 156.18C376.85 157.193 376.154 158.131 375.35 158.97C374.691 159.677 373.921 160.271 373.07 160.73C372.14 161.34 371.025 161.605 369.92 161.48C369.277 161.347 368.7 160.993 368.29 160.48C368.05 160.99 367.8 161.48 367.54 162.03C367.26 162.585 366.925 163.111 366.54 163.6C366.103 164.155 365.61 164.665 365.07 165.12C364.41 165.665 363.688 166.131 362.92 166.51C362.101 166.994 361.142 167.185 360.2 167.05C359.374 166.862 358.655 166.355 358.2 165.64C357.587 164.673 357.179 163.591 357 162.46C356.736 160.885 356.645 159.285 356.73 157.69C356.793 155.924 357.01 154.168 357.38 152.44C357.709 150.891 358.188 149.377 358.81 147.92C359.351 146.635 360.071 145.433 360.95 144.35C361.704 143.4 362.647 142.616 363.72 142.05C364.076 141.801 364.477 141.626 364.902 141.535C365.326 141.444 365.764 141.439 366.19 141.52C366.744 141.762 367.199 142.185 367.48 142.72V142.18C367.499 141.72 367.625 141.271 367.85 140.87C368.021 140.502 368.3 140.195 368.65 139.99L370.79 138.89C370.907 138.814 371.048 138.782 371.186 138.798C371.325 138.815 371.454 138.879 371.55 138.98C371.667 139.116 371.753 139.276 371.802 139.449C371.85 139.622 371.86 139.803 371.83 139.98L371.32 152.77C371.257 153.108 371.274 153.455 371.37 153.785C371.465 154.115 371.636 154.418 371.87 154.67C372.081 154.812 372.33 154.888 372.585 154.888C372.84 154.888 373.089 154.812 373.3 154.67C373.926 154.312 374.43 153.776 374.75 153.13C375.227 152.17 375.496 151.121 375.54 150.05C375.64 148.95 375.71 147.8 375.76 146.62C375.81 145.44 375.81 144.35 375.76 143.35C375.73 141.556 375.461 139.773 374.96 138.05C374.642 136.838 373.94 135.761 372.96 134.98C371.974 134.326 370.779 134.066 369.61 134.25C367.897 134.516 366.244 135.084 364.73 135.93C363.13 136.749 361.671 137.819 360.41 139.1C359.105 140.427 357.976 141.916 357.05 143.53C356.079 145.225 355.291 147.018 354.7 148.88C354.088 150.799 353.66 152.771 353.42 154.77C353.35 155.32 353.28 156.03 353.24 156.89C353.2 157.75 353.15 158.67 353.11 159.61C353.07 160.55 353.04 161.46 353.02 162.33C353 163.2 353.02 163.91 353.02 164.44C353.062 166.054 353.348 167.652 353.87 169.18C354.258 170.357 354.948 171.412 355.87 172.24C356.752 172.962 357.86 173.352 359 173.34C360.489 173.282 361.942 172.871 363.24 172.14C364.255 171.631 365.234 171.053 366.17 170.41C366.942 169.878 367.671 169.287 368.35 168.64C368.933 168.101 369.474 167.52 369.97 166.9C370.42 166.34 370.84 165.78 371.21 165.24C371.58 164.7 371.77 164.41 371.95 164.18C372.153 163.94 372.401 163.743 372.68 163.6L375.68 162.05C375.795 161.966 375.933 161.921 376.075 161.921C376.217 161.921 376.355 161.966 376.47 162.05C376.596 162.195 376.685 162.367 376.73 162.553C376.775 162.74 376.775 162.934 376.73 163.12C376.693 163.473 376.58 163.814 376.4 164.12C375.79 165.25 375.11 166.45 374.35 167.7C373.551 169 372.645 170.231 371.64 171.38C370.514 172.658 369.283 173.838 367.96 174.91C366.412 176.154 364.736 177.23 362.96 178.12C361.066 179.214 358.918 179.794 356.73 179.8C355.086 179.761 353.514 179.121 352.31 178C351.032 176.738 350.102 175.167 349.61 173.44C348.967 171.312 348.63 169.103 348.61 166.88C348.61 166.33 348.61 165.59 348.61 164.66C348.61 163.73 348.67 162.75 348.71 161.72C348.75 160.69 348.8 159.72 348.85 158.8C348.9 157.88 348.95 157.14 349 156.61C349.248 153.958 349.764 151.338 350.54 148.79C351.323 146.149 352.389 143.601 353.72 141.19C355.037 138.8 356.646 136.583 358.51 134.59C360.341 132.625 362.5 130.994 364.89 129.77C367.045 128.525 369.457 127.793 371.94 127.63C373.637 127.561 375.295 128.148 376.57 129.27C377.848 130.536 378.734 132.143 379.12 133.9C379.676 136.142 379.968 138.441 379.99 140.75C379.99 141.75 379.99 142.96 379.93 144.34C379.87 145.72 379.91 147.05 379.81 148.16ZM361 155.47C360.831 156.884 361.035 158.318 361.59 159.63C361.686 159.818 361.822 159.984 361.989 160.113C362.156 160.243 362.349 160.335 362.555 160.382C362.761 160.429 362.975 160.429 363.182 160.384C363.388 160.339 363.582 160.249 363.75 160.12C364.84 159.513 365.675 158.533 366.1 157.36C366.7 155.76 367.018 154.068 367.04 152.36C367.202 150.93 367.003 149.483 366.46 148.15C366 147.31 365.26 147.15 364.25 147.67C363.174 148.287 362.36 149.276 361.96 150.45C361.348 152.054 361.023 153.753 361 155.47Z" fill="white"/>
<path d="M413.09 223.64C420.34 223.64 423.55 224.95 426.16 231.9C428.77 238.85 435.7 254.76 435.83 259.49C435.97 264.4 420.17 279.28 420.74 279.03C420.91 278.95 415.92 270.03 415.92 270.03L424.81 259.13L419.71 244.34L413.09 223.64Z" fill="#FFB8B8"/>
<path d="M415.65 223.47C418.79 223.74 421.86 224.27 424.19 227.05C426.52 229.83 432.35 246.48 432.35 246.48C432.35 246.48 429.62 250.93 421.35 251.59L416.91 240L415.65 223.47Z" fill="#CCCCCC"/>
<path d="M421.83 385.52C422.27 385.94 422.36 386.35 422.34 387.9C422.32 389.45 422.98 391.18 422.19 392.62C421.59 393.7 418.56 394.44 417.02 393.62C415.682 392.743 414.485 391.667 413.47 390.43C412.524 389.341 411.483 388.337 410.36 387.43C409.05 386.43 407.54 385.81 406.17 384.92C405.105 384.23 404.211 383.307 403.554 382.221C402.898 381.135 402.496 379.914 402.38 378.65C402.298 377.822 402.469 376.989 402.87 376.26C403.197 375.872 403.626 375.583 404.108 375.425C404.59 375.268 405.107 375.249 405.6 375.37C407.07 375.6 412.07 378.37 413.23 379.2C414.68 380.21 421.37 385.08 421.83 385.52Z" fill="#2F2E41"/>
<path d="M414.57 377.51C414.589 378.045 414.558 378.58 414.48 379.11C414.43 380.22 409.75 377.62 407.83 377.87H407.78C406 378.73 407.48 381.22 409.14 382.5C410.8 383.78 415.33 387.11 416.09 387.67C418.53 389.58 421.46 388.03 421.59 387.03C421.8 384.41 421.66 381.65 422.09 377.48L414.57 377.51Z" fill="#FFB8B8"/>
<path d="M394.18 397.19C395.05 397.19 395.44 400.03 395.6 402.19C395.72 403.89 396.36 406.65 395.76 407.9C395.16 409.15 392.88 409.9 389.35 409.85C387.07 409.8 383.49 411.31 381.03 412.64C378.57 413.97 375.76 413.98 373.1 413.64C369.97 413.23 366.74 411.37 366.25 410.06C365.76 408.75 366.42 408.14 373.86 405.06C373.93 405.06 381.7 401.64 385.33 397.73L394.18 397.19Z" fill="#2F2E41"/>
<path d="M395.07 391.49H385.86C385.75 393.65 385.58 395.77 385.33 397.82C381.7 401.73 373.93 405.12 373.86 405.15C372.86 405.57 371.94 405.94 371.16 406.28C370.95 406.98 371.22 408.1 374.51 408.64C378.92 409.38 390.83 400.9 393.63 398.85C393.841 398.711 394.045 398.561 394.24 398.4C394.37 396.36 394.67 394 395.07 391.49Z" fill="#FFB8B8"/>
<path d="M422.24 378.2C423.24 367.52 424.81 354.25 424.81 349.12C424.887 344.241 424.404 339.369 423.37 334.6C423.37 334.6 425.01 313.82 425.37 302.08C426.13 279.9 426.59 278.89 422.37 267.23C422.37 267.23 388 263.97 386.73 278.59C385.16 296.8 384.28 327.29 384.32 335.96C384.32 342.42 385.09 349.42 385.45 364.06C385.63 371.7 385.32 381.76 385.54 391.45C387.18 394.15 394.43 392.95 395.54 391.65C397.29 380.45 400.54 365.36 401.22 359.43C401.674 354.197 401.459 348.928 400.58 343.75C400.58 343.75 404.58 312.75 405.25 308.01C406.272 313 406.857 318.069 407 323.16C407 325.22 408.31 331.9 409.49 343.52C410.03 348.84 412.49 364.36 414.16 377.52C415.36 379.56 421.11 380.22 422.24 378.2Z" fill="#2F2E41"/>
<path d="M400.02 217.85L401.06 231.5L411.5 230.73L410.76 215.59L400.02 217.85Z" fill="#FFB8B8"/>
<path d="M400.43 185.92C398.661 185.685 396.862 185.88 395.184 186.488C393.506 187.095 391.999 188.097 390.79 189.41C384.65 196.32 391.38 201.41 391.38 201.41L400.43 185.92Z" fill="#2F2E41"/>
<path d="M389.76 202.85C389.76 202.85 387.09 206.85 387.44 207.29C388.052 207.694 388.728 207.991 389.44 208.17L389.76 202.85Z" fill="#F8A6A6"/>
<path d="M397.91 190.16C395.32 191.48 390.86 193.93 389.68 203.44C388.48 213.2 390.68 216.59 391.97 217.88C392.87 218.74 397.5 219.07 399.92 218.32C402.92 217.39 409.51 214.17 412.6 209.14C416.23 203.23 416.99 195.33 412.83 192.22C407 187.85 400.1 189 397.91 190.16Z" fill="#FFB8B8"/>
<path d="M396.62 201.38C391.21 198.63 392.62 191.45 392.62 191.45C392.62 191.45 400.34 180.45 414.62 187.55C419.55 190.02 422.51 195.63 422.39 202.2C422.39 204.231 421.99 206.242 421.212 208.119C420.435 209.995 419.295 211.7 417.858 213.135C416.422 214.571 414.716 215.71 412.839 216.486C410.962 217.262 408.951 217.661 406.92 217.66C404.533 217.66 402.244 216.712 400.556 215.024C398.868 213.336 397.92 211.047 397.92 208.66V208.06L398.38 208.21C399.119 208.385 399.89 208.374 400.623 208.177C401.356 207.979 402.029 207.602 402.58 207.08C404.95 205.08 405.24 201.08 402.24 200.02C399.24 198.96 397.67 202.49 397.67 202.49L396.51 205.68C396.229 205.578 395.972 205.422 395.752 205.221C395.531 205.02 395.353 204.777 395.227 204.507C395.1 204.237 395.029 203.944 395.015 203.646C395.002 203.348 395.048 203.05 395.15 202.77C395.269 202.439 395.464 202.141 395.719 201.9C395.974 201.658 396.283 201.48 396.62 201.38Z" fill="#2F2E41"/>
<path d="M398 215.5C400.209 215.5 402 213.709 402 211.5C402 209.291 400.209 207.5 398 207.5C395.791 207.5 394 209.291 394 211.5C394 213.709 395.791 215.5 398 215.5Z" fill="#2F2E41"/>
<path d="M421 213.5C423.209 213.5 425 211.709 425 209.5C425 207.291 423.209 205.5 421 205.5C418.791 205.5 417 207.291 417 209.5C417 211.709 418.791 213.5 421 213.5Z" fill="#2F2E41"/>
<path d="M409 220.5C411.209 220.5 413 218.709 413 216.5C413 214.291 411.209 212.5 409 212.5C406.791 212.5 405 214.291 405 216.5C405 218.709 406.791 220.5 409 220.5Z" fill="#2F2E41"/>
<path d="M403 220.5C405.761 220.5 408 218.261 408 215.5C408 212.739 405.761 210.5 403 210.5C400.239 210.5 398 212.739 398 215.5C398 218.261 400.239 220.5 403 220.5Z" fill="#2F2E41"/>
<path d="M416 219.5C418.761 219.5 421 217.261 421 214.5C421 211.739 418.761 209.5 416 209.5C413.239 209.5 411 211.739 411 214.5C411 217.261 413.239 219.5 416 219.5Z" fill="#2F2E41"/>
<path d="M419 257C424.12 240.49 423.43 238.71 422.43 231.65C421.8 227.16 419.8 224.39 415.25 223.34L411.17 222.9C411.49 225.9 401.74 226.25 400.55 224.04L392.95 224.17C390.8 224.93 385.85 235.58 385.05 242.69C384.4 248.46 388.92 253.47 388.92 253.47C389.09 255.76 387.46 260.37 387.46 260.37C387.46 260.37 386.65 274.32 386.19 281.47C386.19 281.47 390.19 286.89 407.78 285.38C419.78 284.38 426.09 278.58 426.09 278.58C424.982 271.033 422.583 263.733 419 257Z" fill="#CCCCCC"/>
<path d="M391.26 263C392.33 261 394.26 240 394.98 232.82L383.65 238.6L381.13 259C380.51 260.35 375.35 271.28 371.71 275.4C371.058 276.121 370.166 276.579 369.2 276.69C366.6 277 365.2 277.91 362.94 278.78C361.18 279.46 360.03 279.29 360 279.78C360.035 280.311 360.266 280.81 360.649 281.18C361.031 281.55 361.538 281.764 362.07 281.78C363.264 281.857 364.462 281.79 365.64 281.58C364.083 282.985 362.327 284.155 360.43 285.05C356 287.17 353.5 289.05 359.15 291.8C362.69 293.5 368.08 292.41 374.43 285.8C376.26 283.91 378.69 280.8 380.74 278.14C385.61 271.94 388.31 268.53 391.26 263Z" fill="#FFB8B8"/>
<path d="M383 236.75C383.45 230.42 385.76 223.94 392.9 224.18C395.41 226.93 395.72 231.05 395.15 237.46C394.67 242.89 393.71 252.84 393.71 252.84C391.37 254.3 383.77 253.42 381.22 251.41L383 236.75Z" fill="#CCCCCC"/>
<defs>
<filter id="filter0_d_1975_29678" x="5.43994" y="209.99" width="487.22" height="288.06" filterUnits="userSpaceOnUse" color-interpolation-filters="sRGB">
<feFlood flood-opacity="0" result="BackgroundImageFix"/>
<feColorMatrix in="SourceAlpha" type="matrix" values="0 0 0 0 0 0 0 0 0 0 0 0 0 0 0 0 0 0 127 0" result="hardAlpha"/>
<feOffset dy="4"/>
<feGaussianBlur stdDeviation="4"/>
<feComposite in2="hardAlpha" operator="out"/>
<feColorMatrix type="matrix" values="0 0 0 0 0.247059 0 0 0 0 0.239216 0 0 0 0 0.337255 0 0 0 0.2 0"/>
<feBlend mode="normal" in2="BackgroundImageFix" result="effect1_dropShadow_1975_29678"/>
<feBlend mode="normal" in="SourceGraphic" in2="effect1_dropShadow_1975_29678" result="shape"/>
</filter>
<linearGradient id="paint0_linear_1975_29678" x1="215" y1="209" x2="232.175" y2="255.922" gradientUnits="userSpaceOnUse">
<stop stop-color="#9D8EF7"/>
<stop offset="1" stop-color="#8CA3F1"/>
</linearGradient>
<linearGradient id="paint1_linear_1975_29678" x1="231.764" y1="361.176" x2="241.541" y2="396.076" gradientUnits="userSpaceOnUse">
<stop stop-color="#9D8EF7"/>
<stop offset="1" stop-color="#8CA3F1"/>
</linearGradient>
<linearGradient id="paint2_linear_1975_29678" x1="241.485" y1="350.565" x2="243.633" y2="356.002" gradientUnits="userSpaceOnUse">
<stop stop-color="#9D8EF7"/>
<stop offset="1" stop-color="#8CA3F1"/>
</linearGradient>
</defs>
</svg>
