<svg xmlns:xlink="http://www.w3.org/1999/xlink" preserveAspectRatio="xMidYMid meet" data-bbox="37.638 34.803 124.724 130.393" viewBox="37.638 34.803 124.724 130.393" height="200" width="200" xmlns="http://www.w3.org/2000/svg" data-type="color" role="presentation" aria-hidden="true" aria-label=""><defs><style>#comp-lktedneu svg [data-color="1"] {fill: #FFC25E;}</style></defs>
    <g>
        <path d="M99.906 34.803c-4.111 0-7.64 2.47-9.21 6.008-29.989 4.518-53.058 30.527-53.058 61.842 0 9.558 2.104 18.74 6.254 27.289a3.78 3.78 0 0 0 3.403 2.134 3.76 3.76 0 0 0 1.652-.383 3.797 3.797 0 0 0 1.745-5.069c-3.644-7.507-5.492-15.571-5.492-23.969 0-27.053 19.598-49.587 45.301-54.113 1.455 3.792 5.112 6.488 9.406 6.488 5.569 0 10.084-4.528 10.084-10.113-.001-5.587-4.515-10.114-10.085-10.114z" fill="#FFC25E" data-color="1"></path>
        <path d="M123.885 156.431a3.778 3.778 0 0 0-4.861-2.236A54.323 54.323 0 0 1 100 157.61a54.323 54.323 0 0 1-30-8.992c.422-1.115.664-2.32.664-3.583 0-5.585-4.515-10.112-10.084-10.112s-10.085 4.528-10.085 10.112c0 5.585 4.515 10.113 10.085 10.113a10 10 0 0 0 4.192-.924 61.841 61.841 0 0 0 35.229 10.972 61.818 61.818 0 0 0 21.656-3.889 3.797 3.797 0 0 0 2.228-4.876z" fill="#FFC25E" data-color="1"></path>
        <path d="M162.362 102.653c0-24.935-14.771-47.469-37.626-57.411a3.781 3.781 0 0 0-4.975 1.971 3.797 3.797 0 0 0 1.965 4.988 54.997 54.997 0 0 1 33.073 50.452c0 12.073-4.022 23.753-11.235 33.258a10.005 10.005 0 0 0-4.33-.99c-5.569 0-10.085 4.528-10.085 10.112 0 5.585 4.515 10.113 10.085 10.113s10.083-4.528 10.083-10.113c0-1.196-.218-2.337-.598-3.403 8.755-11.009 13.643-24.757 13.643-38.977z" fill="#FFC25E" data-color="1"></path>
        <path d="M100 69.692c-18.151 0-32.867 14.757-32.867 32.961 0 18.203 14.715 32.961 32.867 32.961s32.867-14.757 32.867-32.961c0-18.203-14.716-32.961-32.867-32.961zm-10.934 36.407H78.478c-2.089 0-3.781-1.697-3.781-3.792s1.692-3.792 3.781-3.792h10.589a3.786 3.786 0 0 1 3.781 3.792 3.786 3.786 0 0 1-3.782 3.792zm14.37 17.445c0 2.095-1.692 3.792-3.781 3.792s-3.781-1.697-3.781-3.792v-10.619c0-2.095 1.692-3.792 3.781-3.792s3.781 1.697 3.781 3.792v10.619zm0-31.856c0 2.095-1.692 3.792-3.781 3.792s-3.781-1.697-3.781-3.792V81.07c0-2.095 1.692-3.792 3.781-3.792s3.781 1.697 3.781 3.792v10.618zm17.395 14.411h-10.589c-2.089 0-3.781-1.697-3.781-3.792s1.692-3.792 3.781-3.792h10.589c2.089 0 3.781 1.697 3.781 3.792s-1.692 3.792-3.781 3.792z" fill="#FFC25E" data-color="1"></path>
    </g>
</svg>