<svg xmlns:xlink="http://www.w3.org/1999/xlink" preserveAspectRatio="xMidYMid meet" data-bbox="34.161 20 131.677 160" viewBox="34.161 20 131.677 160" height="200" width="200" xmlns="http://www.w3.org/2000/svg" data-type="color" role="presentation" aria-hidden="true" aria-label=""><defs><style>#comp-lktdi60b5 svg [data-color="1"] {fill: #FFC25E;}
#comp-lktdi60b5 svg [data-color="2"] {fill: #32016F;}</style></defs>
    <g>
        <path d="M100 20S64.7 50.2 34.2 39.9c0 0-.5 57.3 2.1 76.2 2.9 21.1 12.9 46.4 63.7 63.9 50.8-17.5 60.8-42.8 63.7-63.9 2.6-18.9 2.1-76.2 2.1-76.2C135.3 50.2 100 20 100 20z" fill="#FFC25E" data-color="1"></path>
        <path fill="#32016F" d="M126.3 92.2v44.2H73.8V92.2h52.5z" data-color="2"></path>
        <path d="M87.6 90.8V76.9c0-5.8 5.6-10.5 12.4-10.5s12.4 4.7 12.4 10.5v13.9h5.5V76.9c0-8.5-8.1-15.4-18-15.4s-18 6.9-18 15.4v13.9h5.7z" fill="#32016F" data-color="2"></path>
    </g>
</svg>