<svg xmlns:xlink="http://www.w3.org/1999/xlink" preserveAspectRatio="xMidYMid meet" data-bbox="21.402 55.184 158.597 88.941" viewBox="21.402 55.184 158.597 88.941" height="200" width="200" xmlns="http://www.w3.org/2000/svg" data-type="color" role="presentation" aria-hidden="true" aria-label=""><defs><style>#comp-lktdrz1u svg [data-color="1"] {fill: #FFC25E;}
#comp-lktdrz1u svg [data-color="2"] {fill: #F9B233;}</style></defs>
    <g>
        <path d="M140.826 56.377l-.003.001.043.035c-.026-.022-.04-.036-.04-.036z" fill="#FFC25E" data-color="1"></path>
        <path d="M144.167 59.433c-.233-.215-1.951-1.785-2.828-2.587 3.802 4.018-.308 14.998-9.361 24.806-9.213 9.981-20.051 14.963-24.206 11.127l3.032 2.799c4.156 3.836 14.993-1.146 24.206-11.127 9.213-9.981 13.313-21.182 9.157-25.018z" fill="#FFC25E" data-color="1"></path>
        <path d="M141.135 56.634c-.086-.079-.179-.149-.27-.221l.474.433c-.068-.071-.132-.145-.204-.212z" fill="#F9B233" data-color="2"></path>
        <path d="M141.339 56.846l-.474-.433-.043-.035c-4.364-3.335-14.901 1.64-23.893 11.382-9.213 9.981-13.313 21.182-9.158 25.018 4.156 3.836 14.993-1.146 24.206-11.127 9.053-9.807 13.164-20.787 9.362-24.805z" fill="#F9B233" data-color="2"></path>
        <path d="M79.096 103.631l-.003.001.043.035a2.038 2.038 0 0 1-.04-.036z" fill="#FFC25E" data-color="1"></path>
        <path d="M82.438 106.687a2281.3 2281.3 0 0 0-2.829-2.587c3.802 4.018-.308 14.998-9.361 24.806-9.213 9.981-20.051 14.963-24.206 11.127l3.032 2.799c4.156 3.836 14.993-1.146 24.206-11.127s13.313-21.182 9.158-25.018z" fill="#FFC25E" data-color="1"></path>
        <path d="M79.406 103.888c-.086-.079-.179-.149-.27-.221l.474.433c-.068-.071-.132-.145-.204-.212z" fill="#F9B233" data-color="2"></path>
        <path d="M79.609 104.1l-.474-.433-.043-.035c-4.364-3.335-14.901 1.64-23.893 11.382-9.213 9.981-13.313 21.182-9.158 25.018s14.993-1.146 24.206-11.127c9.054-9.807 13.164-20.787 9.362-24.805z" fill="#F9B233" data-color="2"></path>
        <path d="M179.857 78.417l-5.329-20.083a4.235 4.235 0 0 0-6.751-2.212l-16.176 13.034a4.235 4.235 0 1 0 5.316 6.596l5.495-4.428c-2.836 6.81-7.135 14.467-12.589 20.826-10.389 12.107-23.958 19.042-34.566 17.658-6.036-.785-10.553-4.194-13.424-10.132-4.234-8.754-11.717-14.246-21.07-15.462-13.834-1.801-29.817 5.703-41.722 19.58-9.737 11.348-15.526 25.255-17.525 33.716a4.234 4.234 0 0 0 4.125 5.21 4.237 4.237 0 0 0 4.118-3.263c1.921-8.132 7.525-20.608 15.71-30.148 9.913-11.554 23.34-18.104 34.201-16.696 6.519.848 11.546 4.565 14.537 10.751 4.136 8.55 11.037 13.683 19.957 14.843 13.589 1.768 29.702-6.107 42.087-20.542 6.239-7.272 10.848-15.589 13.887-22.856l1.534 5.78a4.237 4.237 0 0 0 5.179 3.007 4.235 4.235 0 0 0 3.006-5.179z" fill="#842AE3" data-color="3"></path>
    </g>
</svg>