<svg width="1439" height="841" viewBox="0 0 1439 841" fill="none" xmlns="http://www.w3.org/2000/svg">
<g opacity="0.46">
<path style="mix-blend-mode:screen" d="M708.932 829.482C1081.47 829.482 1383.46 643.905 1383.46 414.983C1383.46 186.062 1081.47 0.484375 708.932 0.484375C336.399 0.484375 34.4011 186.062 34.4011 414.983C34.4011 643.905 336.399 829.482 708.932 829.482Z" fill="url(#paint0_radial_64_124)"/>
<g style="mix-blend-mode:overlay">
<path d="M675.93 840.265L734.839 697.782L768.416 840.265H769.166L735.264 696.324C735.238 696.24 735.193 696.168 735.135 696.117C735.078 696.066 735.009 696.039 734.939 696.039C734.869 696.039 734.801 696.066 734.743 696.117C734.685 696.168 734.64 696.24 734.615 696.324L675.131 840.265H675.93Z" fill="white"/>
<path d="M266.14 840.265L487.161 573.14L535.453 840.265H536.177L487.711 572.136C487.691 572.061 487.659 571.993 487.615 571.937C487.572 571.881 487.519 571.838 487.461 571.813C487.406 571.78 487.347 571.764 487.286 571.764C487.226 571.764 487.166 571.78 487.111 571.813L265.091 840.265H266.14Z" fill="white"/>
<path d="M734.914 696.907H734.789L487.161 572.687C487.107 572.66 487.058 572.616 487.02 572.559C486.981 572.502 486.955 572.433 486.942 572.359C486.93 572.285 486.932 572.208 486.948 572.135C486.965 572.062 486.995 571.996 487.037 571.942L563.383 464.626C563.465 464.591 563.552 464.591 563.633 464.626C563.714 464.589 563.802 464.589 563.883 464.626L735.189 696.033C735.238 696.117 735.264 696.219 735.264 696.324C735.264 696.429 735.238 696.532 735.189 696.616C735.17 696.694 735.134 696.763 735.085 696.814C735.036 696.866 734.977 696.898 734.914 696.907ZM487.986 572.072L733.565 695.126L563.683 465.565L487.986 572.072Z" fill="white"/>
<path d="M536.177 840.265L487.861 573.011L734.489 696.713L675.131 840.265H675.93L735.239 696.68C735.275 696.555 735.275 696.417 735.239 696.292C735.201 696.175 735.129 696.082 735.039 696.033L487.461 571.845C487.408 571.805 487.348 571.784 487.286 571.784C487.225 571.784 487.165 571.805 487.111 571.845C487.062 571.9 487.024 571.971 487.003 572.05C486.981 572.13 486.975 572.215 486.986 572.298L535.453 840.265H536.177Z" fill="white"/>
<path d="M769.166 840.265L735.464 697.134L1102.16 840.265H1104.66L735.039 696.033C734.983 695.987 734.918 695.962 734.852 695.962C734.786 695.962 734.721 695.987 734.665 696.033C734.634 696.102 734.618 696.18 734.618 696.259C734.618 696.339 734.634 696.417 734.665 696.486L768.416 840.265H769.166Z" fill="white"/>
<path d="M734.914 696.907C734.834 696.947 734.745 696.947 734.664 696.907L563.383 465.5C563.357 465.435 563.344 465.363 563.344 465.29C563.344 465.216 563.357 465.144 563.383 465.079C563.399 465.001 563.431 464.93 563.475 464.873C563.518 464.816 563.573 464.776 563.633 464.755L1303.54 186.134C1303.63 186.108 1303.71 186.12 1303.79 186.167C1303.87 186.214 1303.93 186.294 1303.97 186.393C1304.01 186.494 1304.02 186.608 1303.99 186.716C1303.97 186.823 1303.92 186.916 1303.84 186.976L735.114 696.842L734.914 696.907ZM564.308 465.273L734.964 695.871L1301.6 187.818L564.308 465.273Z" fill="white"/>
<path d="M1102.16 840.265H1104.66L735.739 696.292L1303.24 187.527L1257.88 840.265H1258.58L1304.09 186.62C1304.09 186.537 1304.08 186.455 1304.05 186.382C1304.02 186.309 1303.97 186.246 1303.92 186.199C1303.86 186.15 1303.79 186.124 1303.72 186.124C1303.65 186.124 1303.58 186.15 1303.52 186.199L734.714 696.065C734.62 696.185 734.566 696.348 734.564 696.519C734.575 696.607 734.603 696.69 734.647 696.758C734.691 696.827 734.749 696.878 734.814 696.907L1102.16 840.265Z" fill="white"/>
<path d="M1439 278.004V276.968L1303.82 186.134C1303.77 186.103 1303.71 186.086 1303.66 186.086C1303.6 186.086 1303.54 186.103 1303.49 186.134C1303.44 186.174 1303.39 186.23 1303.36 186.298C1303.32 186.365 1303.3 186.442 1303.29 186.523L1257.88 840.265H1258.58L1304.09 187.3L1439 278.004Z" fill="white"/>
<path d="M1439 397.82L1275.49 840.265H1276.29L1439 399.957V397.82Z" fill="white"/>
<path d="M182.873 840.266H183.622L305.713 339.693C305.741 339.618 305.756 339.535 305.756 339.45C305.756 339.366 305.741 339.283 305.713 339.208C305.659 339.168 305.599 339.147 305.538 339.147C305.476 339.147 305.416 339.168 305.363 339.208L0 459.315V460.254L304.788 340.244L182.873 840.266Z" fill="white"/>
<path d="M183.623 840.265L305.538 340.406L486.837 572.234L265.091 840.265H266.14L487.611 572.59C487.635 572.484 487.635 572.372 487.611 572.266C487.629 572.215 487.639 572.16 487.639 572.104C487.639 572.048 487.629 571.993 487.611 571.942L305.613 339.208C305.563 339.174 305.507 339.156 305.45 339.156C305.394 339.156 305.338 339.174 305.288 339.208C305.229 339.218 305.173 339.252 305.129 339.304C305.084 339.356 305.053 339.424 305.038 339.499L182.873 840.265H183.623Z" fill="white"/>
<path d="M1439 397.82L1275.49 840.265H1276.29L1439 399.958V397.82Z" fill="white"/>
<path d="M1439 790.364L1353.76 840.266H1355.48L1439 791.368V790.364Z" fill="white"/>
<path d="M1439 790.364L1353.76 840.265H1355.48L1439 791.368V790.364Z" fill="white"/>
<path d="M737.912 696.454C737.917 697.224 737.746 697.978 737.419 698.621C737.093 699.265 736.626 699.768 736.079 700.067C735.532 700.366 734.928 700.447 734.345 700.301C733.762 700.155 733.225 699.787 732.803 699.245C732.382 698.703 732.094 698.011 731.976 697.256C731.858 696.501 731.916 695.718 732.142 695.007C732.368 694.295 732.753 693.686 733.246 693.257C733.74 692.829 734.32 692.6 734.914 692.6C735.307 692.596 735.696 692.692 736.06 692.884C736.423 693.076 736.754 693.359 737.033 693.717C737.311 694.076 737.533 694.502 737.684 694.971C737.835 695.441 737.912 695.945 737.912 696.454Z" fill="white"/>
<path d="M490.334 572.266C490.334 573.028 490.16 573.773 489.833 574.407C489.507 575.041 489.042 575.535 488.499 575.826C487.956 576.118 487.358 576.194 486.781 576.046C486.205 575.897 485.675 575.53 485.259 574.991C484.843 574.452 484.56 573.765 484.446 573.018C484.331 572.27 484.39 571.495 484.615 570.791C484.84 570.087 485.221 569.485 485.71 569.062C486.199 568.638 486.773 568.412 487.361 568.412C488.15 568.412 488.906 568.818 489.464 569.541C490.021 570.264 490.334 571.244 490.334 572.266Z" fill="white"/>
<path d="M490.334 572.266C490.334 573.028 490.16 573.773 489.833 574.407C489.507 575.041 489.042 575.535 488.499 575.826C487.956 576.118 487.358 576.194 486.781 576.046C486.205 575.897 485.675 575.53 485.259 574.991C484.843 574.452 484.56 573.765 484.446 573.018C484.331 572.27 484.39 571.495 484.615 570.791C484.84 570.087 485.221 569.485 485.71 569.062C486.199 568.638 486.773 568.412 487.361 568.412C488.15 568.412 488.906 568.818 489.464 569.541C490.021 570.264 490.334 571.244 490.334 572.266Z" fill="white"/>
<path d="M737.912 696.454C737.917 697.224 737.746 697.978 737.419 698.621C737.093 699.265 736.626 699.768 736.079 700.067C735.532 700.366 734.928 700.447 734.345 700.301C733.762 700.155 733.225 699.787 732.803 699.245C732.382 698.703 732.094 698.011 731.976 697.256C731.858 696.501 731.916 695.718 732.142 695.007C732.368 694.295 732.753 693.686 733.246 693.257C733.74 692.829 734.32 692.6 734.914 692.6C735.307 692.596 735.696 692.692 736.06 692.884C736.423 693.076 736.754 693.359 737.033 693.717C737.311 694.076 737.533 694.502 737.684 694.971C737.835 695.441 737.912 695.945 737.912 696.454Z" fill="white"/>
<path d="M566.606 465.047C566.606 465.809 566.432 466.554 566.105 467.188C565.779 467.822 565.314 468.315 564.771 468.607C564.228 468.899 563.63 468.975 563.053 468.826C562.477 468.678 561.947 468.311 561.531 467.772C561.115 467.233 560.832 466.546 560.718 465.799C560.603 465.051 560.662 464.276 560.887 463.572C561.112 462.868 561.493 462.266 561.982 461.843C562.471 461.419 563.045 461.193 563.633 461.193C564.422 461.193 565.178 461.599 565.736 462.322C566.293 463.045 566.606 464.025 566.606 465.047Z" fill="white"/>
<path d="M490.334 572.266C490.334 573.028 490.16 573.773 489.833 574.407C489.507 575.041 489.042 575.535 488.499 575.826C487.956 576.118 487.358 576.194 486.781 576.046C486.205 575.897 485.675 575.53 485.259 574.991C484.843 574.452 484.56 573.765 484.446 573.018C484.331 572.27 484.39 571.495 484.615 570.791C484.84 570.087 485.221 569.485 485.71 569.062C486.199 568.638 486.773 568.412 487.361 568.412C488.15 568.412 488.906 568.818 489.464 569.541C490.021 570.264 490.334 571.244 490.334 572.266Z" fill="white"/>
<path d="M737.912 696.454C737.917 697.224 737.746 697.978 737.419 698.621C737.093 699.265 736.626 699.768 736.079 700.067C735.532 700.366 734.928 700.447 734.345 700.301C733.762 700.155 733.225 699.787 732.803 699.245C732.382 698.703 732.094 698.011 731.976 697.256C731.858 696.501 731.916 695.718 732.142 695.007C732.368 694.295 732.753 693.686 733.246 693.257C733.74 692.829 734.32 692.6 734.914 692.6C735.307 692.596 735.696 692.692 736.06 692.884C736.423 693.076 736.754 693.359 737.033 693.717C737.311 694.076 737.533 694.502 737.684 694.971C737.835 695.441 737.912 695.945 737.912 696.454Z" fill="white"/>
<path d="M737.912 696.454C737.917 697.224 737.746 697.978 737.419 698.621C737.093 699.265 736.626 699.768 736.079 700.067C735.532 700.366 734.928 700.447 734.345 700.301C733.762 700.155 733.225 699.787 732.803 699.245C732.382 698.703 732.094 698.011 731.976 697.256C731.858 696.501 731.916 695.718 732.142 695.007C732.368 694.295 732.753 693.686 733.246 693.257C733.74 692.829 734.32 692.6 734.914 692.6C735.307 692.596 735.696 692.692 736.06 692.884C736.423 693.076 736.754 693.359 737.033 693.717C737.311 694.076 737.533 694.502 737.684 694.971C737.835 695.441 737.912 695.945 737.912 696.454Z" fill="white"/>
<path d="M1306.59 186.588C1306.6 187.358 1306.43 188.112 1306.1 188.755C1305.77 189.399 1305.31 189.902 1304.76 190.201C1304.21 190.5 1303.61 190.582 1303.02 190.435C1302.44 190.289 1301.9 189.922 1301.48 189.379C1301.06 188.837 1300.77 188.145 1300.66 187.39C1300.54 186.636 1300.6 185.853 1300.82 185.141C1301.05 184.429 1301.43 183.82 1301.93 183.391C1302.42 182.963 1303 182.734 1303.59 182.734C1303.99 182.73 1304.38 182.827 1304.74 183.018C1305.1 183.21 1305.43 183.493 1305.71 183.851C1305.99 184.21 1306.21 184.636 1306.36 185.106C1306.51 185.575 1306.59 186.079 1306.59 186.588Z" fill="white"/>
<path d="M737.912 696.454C737.917 697.224 737.746 697.978 737.419 698.621C737.093 699.265 736.626 699.768 736.079 700.067C735.532 700.366 734.928 700.447 734.345 700.301C733.762 700.155 733.225 699.787 732.803 699.245C732.382 698.703 732.094 698.011 731.976 697.256C731.858 696.501 731.916 695.718 732.142 695.007C732.368 694.295 732.753 693.686 733.246 693.257C733.74 692.829 734.32 692.6 734.914 692.6C735.307 692.596 735.696 692.692 736.06 692.884C736.423 693.076 736.754 693.359 737.033 693.717C737.311 694.076 737.533 694.502 737.684 694.971C737.835 695.441 737.912 695.945 737.912 696.454Z" fill="white"/>
<path d="M566.606 465.047C566.606 465.809 566.432 466.554 566.105 467.188C565.779 467.822 565.314 468.315 564.771 468.607C564.228 468.899 563.63 468.975 563.053 468.826C562.477 468.678 561.947 468.311 561.531 467.772C561.115 467.233 560.832 466.546 560.718 465.799C560.603 465.051 560.662 464.276 560.887 463.572C561.112 462.868 561.493 462.266 561.982 461.843C562.471 461.419 563.045 461.193 563.633 461.193C564.422 461.193 565.178 461.599 565.736 462.322C566.293 463.045 566.606 464.025 566.606 465.047Z" fill="white"/>
<path d="M1306.59 186.588C1306.6 187.358 1306.43 188.112 1306.1 188.755C1305.77 189.399 1305.31 189.902 1304.76 190.201C1304.21 190.5 1303.61 190.582 1303.02 190.435C1302.44 190.289 1301.9 189.922 1301.48 189.379C1301.06 188.837 1300.77 188.145 1300.66 187.39C1300.54 186.636 1300.6 185.853 1300.82 185.141C1301.05 184.429 1301.43 183.82 1301.93 183.391C1302.42 182.963 1303 182.734 1303.59 182.734C1303.99 182.73 1304.38 182.827 1304.74 183.018C1305.1 183.21 1305.43 183.493 1305.71 183.851C1305.99 184.21 1306.21 184.636 1306.36 185.106C1306.51 185.575 1306.59 186.079 1306.59 186.588Z" fill="white"/>
<path d="M737.912 696.454C737.917 697.224 737.746 697.978 737.419 698.621C737.093 699.265 736.626 699.768 736.079 700.067C735.532 700.366 734.928 700.447 734.345 700.301C733.762 700.155 733.225 699.787 732.803 699.245C732.382 698.703 732.094 698.011 731.976 697.256C731.858 696.501 731.916 695.718 732.142 695.007C732.368 694.295 732.753 693.686 733.246 693.257C733.74 692.829 734.32 692.6 734.914 692.6C735.307 692.596 735.696 692.692 736.06 692.884C736.423 693.076 736.754 693.359 737.033 693.717C737.311 694.076 737.533 694.502 737.684 694.971C737.835 695.441 737.912 695.945 737.912 696.454Z" fill="white"/>
<path d="M1306.59 186.588C1306.6 187.358 1306.43 188.112 1306.1 188.755C1305.77 189.399 1305.31 189.902 1304.76 190.201C1304.21 190.5 1303.61 190.582 1303.02 190.435C1302.44 190.289 1301.9 189.922 1301.48 189.379C1301.06 188.837 1300.77 188.145 1300.66 187.39C1300.54 186.636 1300.6 185.853 1300.82 185.141C1301.05 184.429 1301.43 183.82 1301.93 183.391C1302.42 182.963 1303 182.734 1303.59 182.734C1303.99 182.73 1304.38 182.827 1304.74 183.018C1305.1 183.21 1305.43 183.493 1305.71 183.851C1305.99 184.21 1306.21 184.636 1306.36 185.106C1306.51 185.575 1306.59 186.079 1306.59 186.588Z" fill="white"/>
<path d="M305.363 343.385C307.005 343.385 308.336 341.66 308.336 339.531C308.336 337.403 307.005 335.678 305.363 335.678C303.721 335.678 302.39 337.403 302.39 339.531C302.39 341.66 303.721 343.385 305.363 343.385Z" fill="white"/>
<path d="M305.363 343.385C307.005 343.385 308.336 341.66 308.336 339.531C308.336 337.403 307.005 335.678 305.363 335.678C303.721 335.678 302.39 337.403 302.39 339.531C302.39 341.66 303.721 343.385 305.363 343.385Z" fill="white"/>
<path d="M490.334 572.266C490.334 573.028 490.16 573.773 489.833 574.407C489.507 575.041 489.042 575.535 488.499 575.826C487.956 576.118 487.358 576.194 486.781 576.046C486.205 575.897 485.675 575.53 485.259 574.991C484.843 574.452 484.56 573.765 484.446 573.018C484.331 572.27 484.39 571.495 484.615 570.791C484.84 570.087 485.221 569.485 485.71 569.062C486.199 568.638 486.773 568.412 487.361 568.412C488.15 568.412 488.906 568.818 489.464 569.541C490.021 570.264 490.334 571.244 490.334 572.266Z" fill="white"/>
</g>
<g style="mix-blend-mode:overlay">
<path d="M1439 820.836L1430.96 840.265H1431.75L1439 822.746V820.836Z" fill="white"/>
<path d="M150.146 840.265H151.07L177.577 800.597C177.611 800.482 177.611 800.355 177.577 800.24C177.558 800.113 177.505 799.998 177.427 799.917L0 641.759V642.731L176.802 800.273L150.146 840.265Z" fill="white"/>
<path d="M1073.68 840.266L1191.45 697.782L1217.2 840.266H1217.93L1192.02 696.907C1192 696.831 1191.97 696.761 1191.93 696.705C1191.88 696.649 1191.83 696.608 1191.77 696.585C1191.71 696.563 1191.65 696.56 1191.59 696.576C1191.53 696.593 1191.47 696.629 1191.42 696.681L1072.63 840.266H1073.68Z" fill="white"/>
<path d="M1439 820.253L1268.19 589.494C1268.15 589.472 1268.11 589.461 1268.07 589.461C1268.03 589.461 1267.98 589.472 1267.94 589.494C1267.86 589.449 1267.76 589.449 1267.67 589.494L1191.4 696.713C1191.37 696.778 1191.36 696.85 1191.36 696.923C1191.36 696.997 1191.37 697.069 1191.4 697.134C1191.41 697.207 1191.44 697.274 1191.48 697.33C1191.52 697.387 1191.57 697.43 1191.62 697.458L1439 821.581V820.253ZM1267.94 590.498L1437.83 820.059L1192.22 697.004L1267.94 590.498Z" fill="white"/>
<path d="M1439 820.609L1191.8 696.583C1191.74 696.537 1191.68 696.513 1191.61 696.513C1191.54 696.513 1191.48 696.537 1191.42 696.583C1191.39 696.652 1191.38 696.73 1191.38 696.81C1191.38 696.89 1191.39 696.968 1191.42 697.037L1217.2 840.265H1217.93L1192.17 697.782L1438.73 821.484L1430.96 840.265H1431.76L1439 822.746V820.609Z" fill="white"/>
<path d="M1439 820.253L1268.59 590.044L1439 525.926V524.955L1267.84 589.364C1267.78 589.385 1267.73 589.425 1267.69 589.482C1267.64 589.539 1267.61 589.61 1267.59 589.688C1267.57 589.758 1267.55 589.836 1267.55 589.915C1267.55 589.994 1267.57 590.071 1267.59 590.141L1439 821.548V820.253Z" fill="white"/>
<path d="M151.07 840.266L177.077 801.406L180.949 840.266H181.649L177.677 800.241C177.662 800.155 177.632 800.074 177.588 800.007C177.545 799.939 177.489 799.886 177.427 799.852C177.359 799.827 177.287 799.829 177.22 799.858C177.153 799.887 177.095 799.941 177.052 800.014L150.146 840.266H151.07Z" fill="white"/>
<path d="M541.723 840.266H543.023L389.579 708.954L1009.15 465.015L917.612 840.266H918.337L1010 464.432C1010.02 464.355 1010.03 464.27 1010.02 464.188C1010 464.106 1009.97 464.031 1009.93 463.972C1009.88 463.913 1009.82 463.873 1009.76 463.857C1009.7 463.841 1009.63 463.849 1009.57 463.881L388.655 708.338C388.598 708.381 388.55 708.442 388.517 708.516C388.484 708.59 388.467 708.674 388.467 708.759C388.467 708.845 388.484 708.929 388.517 709.002C388.55 709.076 388.598 709.138 388.655 709.18L541.723 840.266Z" fill="white"/>
<path d="M918.337 840.265L1009.82 465.176L1191.15 697.004L1072.63 840.265H1073.68L1191.9 697.361C1191.93 697.321 1191.96 697.271 1191.99 697.216C1192.01 697.16 1192.02 697.099 1192.02 697.037C1192.05 696.92 1192.05 696.797 1192.02 696.681L1009.92 463.978C1009.87 463.948 1009.81 463.932 1009.75 463.932C1009.69 463.932 1009.63 463.948 1009.57 463.978C1009.46 464.041 1009.37 464.156 1009.32 464.302L917.612 840.265H918.337Z" fill="white"/>
<path d="M181.649 840.265L177.752 801.147L233.563 840.265H235.062L177.602 799.884C177.544 799.845 177.48 799.824 177.414 799.824C177.349 799.824 177.285 799.845 177.227 799.884C177.168 799.93 177.122 799.998 177.095 800.079C177.068 800.161 177.062 800.251 177.077 800.338L180.949 840.265H181.649Z" fill="white"/>
<path d="M233.563 840.266H235.062L178.201 800.402L388.555 709.342L434.323 840.266H435.098L389.08 708.597C389.041 708.491 388.975 708.406 388.892 708.359C388.809 708.311 388.716 708.304 388.63 708.338L177.202 799.852C177.136 799.884 177.079 799.942 177.039 800.017C176.999 800.092 176.977 800.181 176.977 800.273C176.966 800.358 176.977 800.446 177.008 800.522C177.04 800.599 177.091 800.659 177.152 800.694L233.563 840.266Z" fill="white"/>
<path d="M434.323 840.266H435.098L389.579 710.055L541.723 840.266H543.022L388.955 708.403C388.894 708.343 388.819 708.31 388.742 708.31C388.665 708.31 388.591 708.343 388.53 708.403C388.483 708.482 388.458 708.579 388.458 708.678C388.458 708.778 388.483 708.875 388.53 708.954L434.323 840.266Z" fill="white"/>
<path d="M180.3 800.305C180.3 801.07 180.124 801.818 179.795 802.453C179.466 803.088 178.999 803.581 178.453 803.871C177.906 804.161 177.306 804.233 176.728 804.079C176.15 803.925 175.62 803.552 175.207 803.006C174.793 802.461 174.514 801.768 174.405 801.016C174.296 800.265 174.362 799.488 174.595 798.785C174.827 798.082 175.216 797.485 175.712 797.069C176.207 796.654 176.787 796.439 177.377 796.452C178.156 796.469 178.9 796.882 179.447 797.603C179.993 798.324 180.3 799.294 180.3 800.305Z" fill="white"/>
<path d="M1194.64 697.004C1194.64 697.767 1194.47 698.512 1194.14 699.145C1193.82 699.779 1193.35 700.273 1192.81 700.565C1192.27 700.856 1191.67 700.933 1191.09 700.784C1190.52 700.635 1189.99 700.268 1189.57 699.729C1189.15 699.19 1188.87 698.504 1188.76 697.756C1188.64 697.009 1188.7 696.234 1188.93 695.53C1189.15 694.826 1189.53 694.224 1190.02 693.8C1190.51 693.377 1191.08 693.151 1191.67 693.151C1192.46 693.159 1193.21 693.568 1193.77 694.289C1194.32 695.01 1194.64 695.985 1194.64 697.004Z" fill="white"/>
<path d="M1194.64 697.004C1194.64 697.767 1194.47 698.512 1194.14 699.145C1193.82 699.779 1193.35 700.273 1192.81 700.565C1192.27 700.856 1191.67 700.933 1191.09 700.784C1190.52 700.635 1189.99 700.268 1189.57 699.729C1189.15 699.19 1188.87 698.504 1188.76 697.756C1188.64 697.009 1188.7 696.234 1188.93 695.53C1189.15 694.826 1189.53 694.224 1190.02 693.8C1190.51 693.377 1191.08 693.151 1191.67 693.151C1192.46 693.159 1193.21 693.568 1193.77 694.289C1194.32 695.01 1194.64 695.985 1194.64 697.004Z" fill="white"/>
<path d="M1270.92 589.818C1270.92 590.58 1270.74 591.325 1270.42 591.958C1270.09 592.592 1269.62 593.086 1269.08 593.378C1268.54 593.669 1267.94 593.746 1267.36 593.597C1266.79 593.448 1266.26 593.081 1265.84 592.542C1265.43 592.003 1265.14 591.317 1265.03 590.569C1264.91 589.822 1264.97 589.047 1265.2 588.343C1265.42 587.639 1265.8 587.037 1266.29 586.613C1266.78 586.19 1267.36 585.964 1267.94 585.964C1268.73 585.964 1269.49 586.37 1270.05 587.093C1270.6 587.815 1270.92 588.796 1270.92 589.818Z" fill="white"/>
<path d="M1194.64 697.004C1194.64 697.767 1194.47 698.512 1194.14 699.145C1193.82 699.779 1193.35 700.273 1192.81 700.565C1192.27 700.856 1191.67 700.933 1191.09 700.784C1190.52 700.635 1189.99 700.268 1189.57 699.729C1189.15 699.19 1188.87 698.504 1188.76 697.756C1188.64 697.009 1188.7 696.234 1188.93 695.53C1189.15 694.826 1189.53 694.224 1190.02 693.8C1190.51 693.377 1191.08 693.151 1191.67 693.151C1192.46 693.159 1193.21 693.568 1193.77 694.289C1194.32 695.01 1194.64 695.985 1194.64 697.004Z" fill="white"/>
<path d="M1270.92 589.818C1270.92 590.58 1270.74 591.325 1270.42 591.958C1270.09 592.592 1269.62 593.086 1269.08 593.378C1268.54 593.669 1267.94 593.746 1267.36 593.597C1266.79 593.448 1266.26 593.081 1265.84 592.542C1265.43 592.003 1265.14 591.317 1265.03 590.569C1264.91 589.822 1264.97 589.047 1265.2 588.343C1265.42 587.639 1265.8 587.037 1266.29 586.613C1266.78 586.19 1267.36 585.964 1267.94 585.964C1268.73 585.964 1269.49 586.37 1270.05 587.093C1270.6 587.815 1270.92 588.796 1270.92 589.818Z" fill="white"/>
<path d="M180.3 800.305C180.3 801.07 180.124 801.818 179.795 802.453C179.466 803.088 178.999 803.581 178.453 803.871C177.906 804.161 177.306 804.233 176.728 804.079C176.15 803.925 175.62 803.552 175.207 803.006C174.793 802.461 174.514 801.768 174.405 801.016C174.296 800.265 174.362 799.488 174.595 798.785C174.827 798.082 175.216 797.485 175.712 797.069C176.207 796.654 176.787 796.439 177.377 796.452C178.156 796.469 178.9 796.882 179.447 797.603C179.993 798.324 180.3 799.294 180.3 800.305Z" fill="white"/>
<path d="M1012.65 464.302C1012.65 465.064 1012.47 465.809 1012.15 466.443C1011.82 467.077 1011.35 467.571 1010.81 467.862C1010.27 468.154 1009.67 468.23 1009.09 468.082C1008.52 467.933 1007.99 467.566 1007.57 467.027C1007.16 466.488 1006.87 465.801 1006.76 465.054C1006.64 464.306 1006.7 463.532 1006.93 462.827C1007.15 462.123 1007.53 461.521 1008.02 461.098C1008.51 460.675 1009.09 460.449 1009.67 460.449C1010.46 460.449 1011.22 460.855 1011.78 461.577C1012.33 462.3 1012.65 463.28 1012.65 464.302Z" fill="white"/>
<path d="M391.728 708.792C391.728 709.554 391.553 710.299 391.227 710.933C390.9 711.566 390.436 712.06 389.893 712.352C389.349 712.644 388.752 712.72 388.175 712.571C387.598 712.422 387.068 712.055 386.653 711.516C386.237 710.978 385.954 710.291 385.839 709.543C385.724 708.796 385.783 708.021 386.008 707.317C386.233 706.613 386.614 706.011 387.103 705.588C387.592 705.164 388.167 704.938 388.755 704.938C389.543 704.938 390.3 705.344 390.857 706.067C391.415 706.789 391.728 707.77 391.728 708.792Z" fill="white"/>
<path d="M1012.65 464.302C1012.65 465.064 1012.47 465.809 1012.15 466.443C1011.82 467.077 1011.35 467.571 1010.81 467.862C1010.27 468.154 1009.67 468.23 1009.09 468.082C1008.52 467.933 1007.99 467.566 1007.57 467.027C1007.16 466.488 1006.87 465.801 1006.76 465.054C1006.64 464.306 1006.7 463.532 1006.93 462.827C1007.15 462.123 1007.53 461.521 1008.02 461.098C1008.51 460.675 1009.09 460.449 1009.67 460.449C1010.46 460.449 1011.22 460.855 1011.78 461.577C1012.33 462.3 1012.65 463.28 1012.65 464.302Z" fill="white"/>
<path d="M1194.64 697.004C1194.64 697.767 1194.47 698.512 1194.14 699.145C1193.82 699.779 1193.35 700.273 1192.81 700.565C1192.27 700.856 1191.67 700.933 1191.09 700.784C1190.52 700.635 1189.99 700.268 1189.57 699.729C1189.15 699.19 1188.87 698.504 1188.76 697.756C1188.64 697.009 1188.7 696.234 1188.93 695.53C1189.15 694.826 1189.53 694.224 1190.02 693.8C1190.51 693.377 1191.08 693.151 1191.67 693.151C1192.46 693.159 1193.21 693.568 1193.77 694.289C1194.32 695.01 1194.64 695.985 1194.64 697.004Z" fill="white"/>
<path d="M180.3 800.305C180.3 801.07 180.124 801.818 179.795 802.453C179.466 803.088 178.999 803.581 178.453 803.871C177.906 804.161 177.306 804.233 176.728 804.079C176.15 803.925 175.62 803.552 175.207 803.006C174.793 802.461 174.514 801.768 174.405 801.016C174.296 800.265 174.362 799.488 174.595 798.785C174.827 798.082 175.216 797.485 175.712 797.069C176.207 796.654 176.787 796.439 177.377 796.452C178.156 796.469 178.9 796.882 179.447 797.603C179.993 798.324 180.3 799.294 180.3 800.305Z" fill="white"/>
<path d="M391.728 708.792C391.728 709.554 391.553 710.299 391.227 710.933C390.9 711.566 390.436 712.06 389.893 712.352C389.349 712.644 388.752 712.72 388.175 712.571C387.598 712.422 387.068 712.055 386.653 711.516C386.237 710.978 385.954 710.291 385.839 709.543C385.724 708.796 385.783 708.021 386.008 707.317C386.233 706.613 386.614 706.011 387.103 705.588C387.592 705.164 388.167 704.938 388.755 704.938C389.543 704.938 390.3 705.344 390.857 706.067C391.415 706.789 391.728 707.77 391.728 708.792Z" fill="white"/>
<path d="M180.3 800.305C180.3 801.07 180.124 801.818 179.795 802.453C179.466 803.088 178.999 803.581 178.453 803.871C177.906 804.161 177.306 804.233 176.728 804.079C176.15 803.925 175.62 803.552 175.207 803.006C174.793 802.461 174.514 801.768 174.405 801.016C174.296 800.265 174.362 799.488 174.595 798.785C174.827 798.082 175.216 797.485 175.712 797.069C176.207 796.654 176.787 796.439 177.377 796.452C178.156 796.469 178.9 796.882 179.447 797.603C179.993 798.324 180.3 799.294 180.3 800.305Z" fill="white"/>
<path d="M391.728 708.792C391.728 709.554 391.553 710.299 391.227 710.933C390.9 711.566 390.436 712.06 389.893 712.352C389.349 712.644 388.752 712.72 388.175 712.571C387.598 712.422 387.068 712.055 386.653 711.516C386.237 710.978 385.954 710.291 385.839 709.543C385.724 708.796 385.783 708.021 386.008 707.317C386.233 706.613 386.614 706.011 387.103 705.588C387.592 705.164 388.167 704.938 388.755 704.938C389.543 704.938 390.3 705.344 390.857 706.067C391.415 706.789 391.728 707.77 391.728 708.792Z" fill="white"/>
</g>
<g style="mix-blend-mode:overlay">
<path d="M675.93 840.265L734.839 697.782L768.416 840.265H769.166L735.264 696.324C735.238 696.24 735.193 696.168 735.135 696.117C735.078 696.066 735.009 696.039 734.939 696.039C734.869 696.039 734.801 696.066 734.743 696.117C734.685 696.168 734.64 696.24 734.615 696.324L675.131 840.265H675.93Z" fill="white"/>
<path d="M266.14 840.265L487.161 573.14L535.453 840.265H536.177L487.711 572.136C487.691 572.061 487.659 571.993 487.615 571.937C487.572 571.881 487.519 571.838 487.461 571.813C487.406 571.78 487.347 571.764 487.286 571.764C487.226 571.764 487.166 571.78 487.111 571.813L265.091 840.265H266.14Z" fill="white"/>
<path d="M734.914 696.907H734.789L487.161 572.687C487.107 572.66 487.058 572.616 487.02 572.559C486.981 572.502 486.955 572.433 486.942 572.359C486.93 572.285 486.932 572.208 486.948 572.135C486.965 572.062 486.995 571.996 487.037 571.942L563.383 464.626C563.465 464.591 563.552 464.591 563.633 464.626C563.714 464.589 563.802 464.589 563.883 464.626L735.189 696.033C735.238 696.117 735.264 696.219 735.264 696.324C735.264 696.429 735.238 696.532 735.189 696.616C735.17 696.694 735.134 696.763 735.085 696.814C735.036 696.866 734.977 696.898 734.914 696.907ZM487.986 572.072L733.565 695.126L563.683 465.565L487.986 572.072Z" fill="white"/>
<path d="M536.177 840.265L487.861 573.011L734.489 696.713L675.131 840.265H675.93L735.239 696.68C735.275 696.555 735.275 696.417 735.239 696.292C735.201 696.175 735.129 696.082 735.039 696.033L487.461 571.845C487.408 571.805 487.348 571.784 487.286 571.784C487.225 571.784 487.165 571.805 487.111 571.845C487.062 571.9 487.024 571.971 487.003 572.05C486.981 572.13 486.975 572.215 486.986 572.298L535.453 840.265H536.177Z" fill="white"/>
<path d="M769.166 840.265L735.464 697.134L1102.16 840.265H1104.66L735.039 696.033C734.983 695.987 734.918 695.962 734.852 695.962C734.786 695.962 734.721 695.987 734.665 696.033C734.634 696.102 734.618 696.18 734.618 696.259C734.618 696.339 734.634 696.417 734.665 696.486L768.416 840.265H769.166Z" fill="white"/>
<path d="M734.914 696.907C734.834 696.947 734.745 696.947 734.664 696.907L563.383 465.5C563.357 465.435 563.344 465.363 563.344 465.29C563.344 465.216 563.357 465.144 563.383 465.079C563.399 465.001 563.431 464.93 563.475 464.873C563.518 464.816 563.573 464.776 563.633 464.755L1303.54 186.134C1303.63 186.108 1303.71 186.12 1303.79 186.167C1303.87 186.214 1303.93 186.294 1303.97 186.393C1304.01 186.494 1304.02 186.608 1303.99 186.716C1303.97 186.823 1303.92 186.916 1303.84 186.976L735.114 696.842L734.914 696.907ZM564.308 465.273L734.964 695.871L1301.6 187.818L564.308 465.273Z" fill="white"/>
<path d="M1102.16 840.265H1104.66L735.739 696.292L1303.24 187.527L1257.88 840.265H1258.58L1304.09 186.62C1304.09 186.537 1304.08 186.455 1304.05 186.382C1304.02 186.309 1303.97 186.246 1303.92 186.199C1303.86 186.15 1303.79 186.124 1303.72 186.124C1303.65 186.124 1303.58 186.15 1303.52 186.199L734.714 696.065C734.62 696.185 734.566 696.348 734.564 696.519C734.575 696.607 734.603 696.69 734.647 696.758C734.691 696.827 734.749 696.878 734.814 696.907L1102.16 840.265Z" fill="white"/>
<path d="M1439 278.004V276.968L1303.82 186.134C1303.77 186.103 1303.71 186.086 1303.66 186.086C1303.6 186.086 1303.54 186.103 1303.49 186.134C1303.44 186.174 1303.39 186.23 1303.36 186.298C1303.32 186.365 1303.3 186.442 1303.29 186.523L1257.88 840.265H1258.58L1304.09 187.3L1439 278.004Z" fill="white"/>
<path d="M1439 397.82L1275.49 840.265H1276.29L1439 399.957V397.82Z" fill="white"/>
<path d="M182.873 840.266H183.622L305.713 339.693C305.741 339.618 305.756 339.535 305.756 339.45C305.756 339.366 305.741 339.283 305.713 339.208C305.659 339.168 305.599 339.147 305.538 339.147C305.476 339.147 305.416 339.168 305.363 339.208L0 459.315V460.254L304.788 340.244L182.873 840.266Z" fill="white"/>
<path d="M183.623 840.265L305.538 340.406L486.837 572.234L265.091 840.265H266.14L487.611 572.59C487.635 572.484 487.635 572.372 487.611 572.266C487.629 572.215 487.639 572.16 487.639 572.104C487.639 572.048 487.629 571.993 487.611 571.942L305.613 339.208C305.563 339.174 305.507 339.156 305.45 339.156C305.394 339.156 305.338 339.174 305.288 339.208C305.229 339.218 305.173 339.252 305.129 339.304C305.084 339.356 305.053 339.424 305.038 339.499L182.873 840.265H183.623Z" fill="white"/>
<path d="M1439 397.82L1275.49 840.265H1276.29L1439 399.958V397.82Z" fill="white"/>
<path d="M1439 790.364L1353.76 840.266H1355.48L1439 791.368V790.364Z" fill="white"/>
<path d="M1439 790.364L1353.76 840.265H1355.48L1439 791.368V790.364Z" fill="white"/>
<path d="M737.912 696.454C737.917 697.224 737.746 697.978 737.419 698.621C737.093 699.265 736.626 699.768 736.079 700.067C735.532 700.366 734.928 700.447 734.345 700.301C733.762 700.155 733.225 699.787 732.803 699.245C732.382 698.703 732.094 698.011 731.976 697.256C731.858 696.501 731.916 695.718 732.142 695.007C732.368 694.295 732.753 693.686 733.246 693.257C733.74 692.829 734.32 692.6 734.914 692.6C735.307 692.596 735.696 692.692 736.06 692.884C736.423 693.076 736.754 693.359 737.033 693.717C737.311 694.076 737.533 694.502 737.684 694.971C737.835 695.441 737.912 695.945 737.912 696.454Z" fill="white"/>
<path d="M490.334 572.266C490.334 573.028 490.16 573.773 489.833 574.407C489.507 575.041 489.042 575.535 488.499 575.826C487.956 576.118 487.358 576.194 486.781 576.046C486.205 575.897 485.675 575.53 485.259 574.991C484.843 574.452 484.56 573.765 484.446 573.018C484.331 572.27 484.39 571.495 484.615 570.791C484.84 570.087 485.221 569.485 485.71 569.062C486.199 568.638 486.773 568.412 487.361 568.412C488.15 568.412 488.906 568.818 489.464 569.541C490.021 570.264 490.334 571.244 490.334 572.266Z" fill="white"/>
<path d="M490.334 572.266C490.334 573.028 490.16 573.773 489.833 574.407C489.507 575.041 489.042 575.535 488.499 575.826C487.956 576.118 487.358 576.194 486.781 576.046C486.205 575.897 485.675 575.53 485.259 574.991C484.843 574.452 484.56 573.765 484.446 573.018C484.331 572.27 484.39 571.495 484.615 570.791C484.84 570.087 485.221 569.485 485.71 569.062C486.199 568.638 486.773 568.412 487.361 568.412C488.15 568.412 488.906 568.818 489.464 569.541C490.021 570.264 490.334 571.244 490.334 572.266Z" fill="white"/>
<path d="M737.912 696.454C737.917 697.224 737.746 697.978 737.419 698.621C737.093 699.265 736.626 699.768 736.079 700.067C735.532 700.366 734.928 700.447 734.345 700.301C733.762 700.155 733.225 699.787 732.803 699.245C732.382 698.703 732.094 698.011 731.976 697.256C731.858 696.501 731.916 695.718 732.142 695.007C732.368 694.295 732.753 693.686 733.246 693.257C733.74 692.829 734.32 692.6 734.914 692.6C735.307 692.596 735.696 692.692 736.06 692.884C736.423 693.076 736.754 693.359 737.033 693.717C737.311 694.076 737.533 694.502 737.684 694.971C737.835 695.441 737.912 695.945 737.912 696.454Z" fill="white"/>
<path d="M566.606 465.047C566.606 465.809 566.432 466.554 566.105 467.188C565.779 467.822 565.314 468.315 564.771 468.607C564.228 468.899 563.63 468.975 563.053 468.826C562.477 468.678 561.947 468.311 561.531 467.772C561.115 467.233 560.832 466.546 560.718 465.799C560.603 465.051 560.662 464.276 560.887 463.572C561.112 462.868 561.493 462.266 561.982 461.843C562.471 461.419 563.045 461.193 563.633 461.193C564.422 461.193 565.178 461.599 565.736 462.322C566.293 463.045 566.606 464.025 566.606 465.047Z" fill="white"/>
<path d="M490.334 572.266C490.334 573.028 490.16 573.773 489.833 574.407C489.507 575.041 489.042 575.535 488.499 575.826C487.956 576.118 487.358 576.194 486.781 576.046C486.205 575.897 485.675 575.53 485.259 574.991C484.843 574.452 484.56 573.765 484.446 573.018C484.331 572.27 484.39 571.495 484.615 570.791C484.84 570.087 485.221 569.485 485.71 569.062C486.199 568.638 486.773 568.412 487.361 568.412C488.15 568.412 488.906 568.818 489.464 569.541C490.021 570.264 490.334 571.244 490.334 572.266Z" fill="white"/>
<path d="M737.912 696.454C737.917 697.224 737.746 697.978 737.419 698.621C737.093 699.265 736.626 699.768 736.079 700.067C735.532 700.366 734.928 700.447 734.345 700.301C733.762 700.155 733.225 699.787 732.803 699.245C732.382 698.703 732.094 698.011 731.976 697.256C731.858 696.501 731.916 695.718 732.142 695.007C732.368 694.295 732.753 693.686 733.246 693.257C733.74 692.829 734.32 692.6 734.914 692.6C735.307 692.596 735.696 692.692 736.06 692.884C736.423 693.076 736.754 693.359 737.033 693.717C737.311 694.076 737.533 694.502 737.684 694.971C737.835 695.441 737.912 695.945 737.912 696.454Z" fill="white"/>
<path d="M737.912 696.454C737.917 697.224 737.746 697.978 737.419 698.621C737.093 699.265 736.626 699.768 736.079 700.067C735.532 700.366 734.928 700.447 734.345 700.301C733.762 700.155 733.225 699.787 732.803 699.245C732.382 698.703 732.094 698.011 731.976 697.256C731.858 696.501 731.916 695.718 732.142 695.007C732.368 694.295 732.753 693.686 733.246 693.257C733.74 692.829 734.32 692.6 734.914 692.6C735.307 692.596 735.696 692.692 736.06 692.884C736.423 693.076 736.754 693.359 737.033 693.717C737.311 694.076 737.533 694.502 737.684 694.971C737.835 695.441 737.912 695.945 737.912 696.454Z" fill="white"/>
<path d="M1306.59 186.588C1306.6 187.358 1306.43 188.112 1306.1 188.755C1305.77 189.399 1305.31 189.902 1304.76 190.201C1304.21 190.5 1303.61 190.582 1303.02 190.435C1302.44 190.289 1301.9 189.922 1301.48 189.379C1301.06 188.837 1300.77 188.145 1300.66 187.39C1300.54 186.636 1300.6 185.853 1300.82 185.141C1301.05 184.429 1301.43 183.82 1301.93 183.391C1302.42 182.963 1303 182.734 1303.59 182.734C1303.99 182.73 1304.38 182.827 1304.74 183.018C1305.1 183.21 1305.43 183.493 1305.71 183.851C1305.99 184.21 1306.21 184.636 1306.36 185.106C1306.51 185.575 1306.59 186.079 1306.59 186.588Z" fill="white"/>
<path d="M737.912 696.454C737.917 697.224 737.746 697.978 737.419 698.621C737.093 699.265 736.626 699.768 736.079 700.067C735.532 700.366 734.928 700.447 734.345 700.301C733.762 700.155 733.225 699.787 732.803 699.245C732.382 698.703 732.094 698.011 731.976 697.256C731.858 696.501 731.916 695.718 732.142 695.007C732.368 694.295 732.753 693.686 733.246 693.257C733.74 692.829 734.32 692.6 734.914 692.6C735.307 692.596 735.696 692.692 736.06 692.884C736.423 693.076 736.754 693.359 737.033 693.717C737.311 694.076 737.533 694.502 737.684 694.971C737.835 695.441 737.912 695.945 737.912 696.454Z" fill="white"/>
<path d="M566.606 465.047C566.606 465.809 566.432 466.554 566.105 467.188C565.779 467.822 565.314 468.315 564.771 468.607C564.228 468.899 563.63 468.975 563.053 468.826C562.477 468.678 561.947 468.311 561.531 467.772C561.115 467.233 560.832 466.546 560.718 465.799C560.603 465.051 560.662 464.276 560.887 463.572C561.112 462.868 561.493 462.266 561.982 461.843C562.471 461.419 563.045 461.193 563.633 461.193C564.422 461.193 565.178 461.599 565.736 462.322C566.293 463.045 566.606 464.025 566.606 465.047Z" fill="white"/>
<path d="M1306.59 186.588C1306.6 187.358 1306.43 188.112 1306.1 188.755C1305.77 189.399 1305.31 189.902 1304.76 190.201C1304.21 190.5 1303.61 190.582 1303.02 190.435C1302.44 190.289 1301.9 189.922 1301.48 189.379C1301.06 188.837 1300.77 188.145 1300.66 187.39C1300.54 186.636 1300.6 185.853 1300.82 185.141C1301.05 184.429 1301.43 183.82 1301.93 183.391C1302.42 182.963 1303 182.734 1303.59 182.734C1303.99 182.73 1304.38 182.827 1304.74 183.018C1305.1 183.21 1305.43 183.493 1305.71 183.851C1305.99 184.21 1306.21 184.636 1306.36 185.106C1306.51 185.575 1306.59 186.079 1306.59 186.588Z" fill="white"/>
<path d="M737.912 696.454C737.917 697.224 737.746 697.978 737.419 698.621C737.093 699.265 736.626 699.768 736.079 700.067C735.532 700.366 734.928 700.447 734.345 700.301C733.762 700.155 733.225 699.787 732.803 699.245C732.382 698.703 732.094 698.011 731.976 697.256C731.858 696.501 731.916 695.718 732.142 695.007C732.368 694.295 732.753 693.686 733.246 693.257C733.74 692.829 734.32 692.6 734.914 692.6C735.307 692.596 735.696 692.692 736.06 692.884C736.423 693.076 736.754 693.359 737.033 693.717C737.311 694.076 737.533 694.502 737.684 694.971C737.835 695.441 737.912 695.945 737.912 696.454Z" fill="white"/>
<path d="M1306.59 186.588C1306.6 187.358 1306.43 188.112 1306.1 188.755C1305.77 189.399 1305.31 189.902 1304.76 190.201C1304.21 190.5 1303.61 190.582 1303.02 190.435C1302.44 190.289 1301.9 189.922 1301.48 189.379C1301.06 188.837 1300.77 188.145 1300.66 187.39C1300.54 186.636 1300.6 185.853 1300.82 185.141C1301.05 184.429 1301.43 183.82 1301.93 183.391C1302.42 182.963 1303 182.734 1303.59 182.734C1303.99 182.73 1304.38 182.827 1304.74 183.018C1305.1 183.21 1305.43 183.493 1305.71 183.851C1305.99 184.21 1306.21 184.636 1306.36 185.106C1306.51 185.575 1306.59 186.079 1306.59 186.588Z" fill="white"/>
<path d="M305.363 343.385C307.005 343.385 308.336 341.66 308.336 339.531C308.336 337.403 307.005 335.678 305.363 335.678C303.721 335.678 302.39 337.403 302.39 339.531C302.39 341.66 303.721 343.385 305.363 343.385Z" fill="white"/>
<path d="M305.363 343.385C307.005 343.385 308.336 341.66 308.336 339.531C308.336 337.403 307.005 335.678 305.363 335.678C303.721 335.678 302.39 337.403 302.39 339.531C302.39 341.66 303.721 343.385 305.363 343.385Z" fill="white"/>
<path d="M490.334 572.266C490.334 573.028 490.16 573.773 489.833 574.407C489.507 575.041 489.042 575.535 488.499 575.826C487.956 576.118 487.358 576.194 486.781 576.046C486.205 575.897 485.675 575.53 485.259 574.991C484.843 574.452 484.56 573.765 484.446 573.018C484.331 572.27 484.39 571.495 484.615 570.791C484.84 570.087 485.221 569.485 485.71 569.062C486.199 568.638 486.773 568.412 487.361 568.412C488.15 568.412 488.906 568.818 489.464 569.541C490.021 570.264 490.334 571.244 490.334 572.266Z" fill="white"/>
</g>
<g style="mix-blend-mode:overlay">
<path d="M1439 820.836L1430.96 840.265H1431.75L1439 822.746V820.836Z" fill="white"/>
<path d="M150.146 840.265H151.07L177.577 800.597C177.611 800.482 177.611 800.355 177.577 800.24C177.558 800.113 177.505 799.998 177.427 799.917L0 641.759V642.731L176.802 800.273L150.146 840.265Z" fill="white"/>
<path d="M1073.68 840.266L1191.45 697.782L1217.2 840.266H1217.93L1192.02 696.907C1192 696.831 1191.97 696.761 1191.93 696.705C1191.88 696.649 1191.83 696.608 1191.77 696.585C1191.71 696.563 1191.65 696.56 1191.59 696.576C1191.53 696.593 1191.47 696.629 1191.42 696.681L1072.63 840.266H1073.68Z" fill="white"/>
<path d="M1439 820.253L1268.19 589.494C1268.15 589.472 1268.11 589.461 1268.07 589.461C1268.03 589.461 1267.98 589.472 1267.94 589.494C1267.86 589.449 1267.76 589.449 1267.67 589.494L1191.4 696.713C1191.37 696.778 1191.36 696.85 1191.36 696.923C1191.36 696.997 1191.37 697.069 1191.4 697.134C1191.41 697.207 1191.44 697.274 1191.48 697.33C1191.52 697.387 1191.57 697.43 1191.62 697.458L1439 821.581V820.253ZM1267.94 590.498L1437.83 820.059L1192.22 697.004L1267.94 590.498Z" fill="white"/>
<path d="M1439 820.609L1191.8 696.583C1191.74 696.537 1191.68 696.513 1191.61 696.513C1191.54 696.513 1191.48 696.537 1191.42 696.583C1191.39 696.652 1191.38 696.73 1191.38 696.81C1191.38 696.89 1191.39 696.968 1191.42 697.037L1217.2 840.265H1217.93L1192.17 697.782L1438.73 821.484L1430.96 840.265H1431.76L1439 822.746V820.609Z" fill="white"/>
<path d="M1439 820.253L1268.59 590.044L1439 525.926V524.955L1267.84 589.364C1267.78 589.385 1267.73 589.425 1267.69 589.482C1267.64 589.539 1267.61 589.61 1267.59 589.688C1267.57 589.758 1267.55 589.836 1267.55 589.915C1267.55 589.994 1267.57 590.071 1267.59 590.141L1439 821.548V820.253Z" fill="white"/>
<path d="M151.07 840.266L177.077 801.406L180.949 840.266H181.649L177.677 800.241C177.662 800.155 177.632 800.074 177.588 800.007C177.545 799.939 177.489 799.886 177.427 799.852C177.359 799.827 177.287 799.829 177.22 799.858C177.153 799.887 177.095 799.941 177.052 800.014L150.146 840.266H151.07Z" fill="white"/>
<path d="M541.723 840.266H543.023L389.579 708.954L1009.15 465.015L917.612 840.266H918.337L1010 464.432C1010.02 464.355 1010.03 464.27 1010.02 464.188C1010 464.106 1009.97 464.031 1009.93 463.972C1009.88 463.913 1009.82 463.873 1009.76 463.857C1009.7 463.841 1009.63 463.849 1009.57 463.881L388.655 708.338C388.598 708.381 388.55 708.442 388.517 708.516C388.484 708.59 388.467 708.674 388.467 708.759C388.467 708.845 388.484 708.929 388.517 709.002C388.55 709.076 388.598 709.138 388.655 709.18L541.723 840.266Z" fill="white"/>
<path d="M918.337 840.265L1009.82 465.176L1191.15 697.004L1072.63 840.265H1073.68L1191.9 697.361C1191.93 697.321 1191.96 697.271 1191.99 697.216C1192.01 697.16 1192.02 697.099 1192.02 697.037C1192.05 696.92 1192.05 696.797 1192.02 696.681L1009.92 463.978C1009.87 463.948 1009.81 463.932 1009.75 463.932C1009.69 463.932 1009.63 463.948 1009.57 463.978C1009.46 464.041 1009.37 464.156 1009.32 464.302L917.612 840.265H918.337Z" fill="white"/>
<path d="M181.649 840.265L177.752 801.147L233.563 840.265H235.062L177.602 799.884C177.544 799.845 177.48 799.824 177.414 799.824C177.349 799.824 177.285 799.845 177.227 799.884C177.168 799.93 177.122 799.998 177.095 800.079C177.068 800.161 177.062 800.251 177.077 800.338L180.949 840.265H181.649Z" fill="white"/>
<path d="M233.563 840.266H235.062L178.201 800.402L388.555 709.342L434.323 840.266H435.098L389.08 708.597C389.041 708.491 388.975 708.406 388.892 708.359C388.809 708.311 388.716 708.304 388.63 708.338L177.202 799.852C177.136 799.884 177.079 799.942 177.039 800.017C176.999 800.092 176.977 800.181 176.977 800.273C176.966 800.358 176.977 800.446 177.008 800.522C177.04 800.599 177.091 800.659 177.152 800.694L233.563 840.266Z" fill="white"/>
<path d="M434.323 840.266H435.098L389.579 710.055L541.723 840.266H543.022L388.955 708.403C388.894 708.343 388.819 708.31 388.742 708.31C388.665 708.31 388.591 708.343 388.53 708.403C388.483 708.482 388.458 708.579 388.458 708.678C388.458 708.778 388.483 708.875 388.53 708.954L434.323 840.266Z" fill="white"/>
<path d="M180.3 800.305C180.3 801.07 180.124 801.818 179.795 802.453C179.466 803.088 178.999 803.581 178.453 803.871C177.906 804.161 177.306 804.233 176.728 804.079C176.15 803.925 175.62 803.552 175.207 803.006C174.793 802.461 174.514 801.768 174.405 801.016C174.296 800.265 174.362 799.488 174.595 798.785C174.827 798.082 175.216 797.485 175.712 797.069C176.207 796.654 176.787 796.439 177.377 796.452C178.156 796.469 178.9 796.882 179.447 797.603C179.993 798.324 180.3 799.294 180.3 800.305Z" fill="white"/>
<path d="M1194.64 697.004C1194.64 697.767 1194.47 698.512 1194.14 699.145C1193.82 699.779 1193.35 700.273 1192.81 700.565C1192.27 700.856 1191.67 700.933 1191.09 700.784C1190.52 700.635 1189.99 700.268 1189.57 699.729C1189.15 699.19 1188.87 698.504 1188.76 697.756C1188.64 697.009 1188.7 696.234 1188.93 695.53C1189.15 694.826 1189.53 694.224 1190.02 693.8C1190.51 693.377 1191.08 693.151 1191.67 693.151C1192.46 693.159 1193.21 693.568 1193.77 694.289C1194.32 695.01 1194.64 695.985 1194.64 697.004Z" fill="white"/>
<path d="M1194.64 697.004C1194.64 697.767 1194.47 698.512 1194.14 699.145C1193.82 699.779 1193.35 700.273 1192.81 700.565C1192.27 700.856 1191.67 700.933 1191.09 700.784C1190.52 700.635 1189.99 700.268 1189.57 699.729C1189.15 699.19 1188.87 698.504 1188.76 697.756C1188.64 697.009 1188.7 696.234 1188.93 695.53C1189.15 694.826 1189.53 694.224 1190.02 693.8C1190.51 693.377 1191.08 693.151 1191.67 693.151C1192.46 693.159 1193.21 693.568 1193.77 694.289C1194.32 695.01 1194.64 695.985 1194.64 697.004Z" fill="white"/>
<path d="M1270.92 589.818C1270.92 590.58 1270.74 591.325 1270.42 591.958C1270.09 592.592 1269.62 593.086 1269.08 593.378C1268.54 593.669 1267.94 593.746 1267.36 593.597C1266.79 593.448 1266.26 593.081 1265.84 592.542C1265.43 592.003 1265.14 591.317 1265.03 590.569C1264.91 589.822 1264.97 589.047 1265.2 588.343C1265.42 587.639 1265.8 587.037 1266.29 586.613C1266.78 586.19 1267.36 585.964 1267.94 585.964C1268.73 585.964 1269.49 586.37 1270.05 587.093C1270.6 587.815 1270.92 588.796 1270.92 589.818Z" fill="white"/>
<path d="M1194.64 697.004C1194.64 697.767 1194.47 698.512 1194.14 699.145C1193.82 699.779 1193.35 700.273 1192.81 700.565C1192.27 700.856 1191.67 700.933 1191.09 700.784C1190.52 700.635 1189.99 700.268 1189.57 699.729C1189.15 699.19 1188.87 698.504 1188.76 697.756C1188.64 697.009 1188.7 696.234 1188.93 695.53C1189.15 694.826 1189.53 694.224 1190.02 693.8C1190.51 693.377 1191.08 693.151 1191.67 693.151C1192.46 693.159 1193.21 693.568 1193.77 694.289C1194.32 695.01 1194.64 695.985 1194.64 697.004Z" fill="white"/>
<path d="M1270.92 589.818C1270.92 590.58 1270.74 591.325 1270.42 591.958C1270.09 592.592 1269.62 593.086 1269.08 593.378C1268.54 593.669 1267.94 593.746 1267.36 593.597C1266.79 593.448 1266.26 593.081 1265.84 592.542C1265.43 592.003 1265.14 591.317 1265.03 590.569C1264.91 589.822 1264.97 589.047 1265.2 588.343C1265.42 587.639 1265.8 587.037 1266.29 586.613C1266.78 586.19 1267.36 585.964 1267.94 585.964C1268.73 585.964 1269.49 586.37 1270.05 587.093C1270.6 587.815 1270.92 588.796 1270.92 589.818Z" fill="white"/>
<path d="M180.3 800.305C180.3 801.07 180.124 801.818 179.795 802.453C179.466 803.088 178.999 803.581 178.453 803.871C177.906 804.161 177.306 804.233 176.728 804.079C176.15 803.925 175.62 803.552 175.207 803.006C174.793 802.461 174.514 801.768 174.405 801.016C174.296 800.265 174.362 799.488 174.595 798.785C174.827 798.082 175.216 797.485 175.712 797.069C176.207 796.654 176.787 796.439 177.377 796.452C178.156 796.469 178.9 796.882 179.447 797.603C179.993 798.324 180.3 799.294 180.3 800.305Z" fill="white"/>
<path d="M1012.65 464.302C1012.65 465.064 1012.47 465.809 1012.15 466.443C1011.82 467.077 1011.35 467.571 1010.81 467.862C1010.27 468.154 1009.67 468.23 1009.09 468.082C1008.52 467.933 1007.99 467.566 1007.57 467.027C1007.16 466.488 1006.87 465.801 1006.76 465.054C1006.64 464.306 1006.7 463.532 1006.93 462.827C1007.15 462.123 1007.53 461.521 1008.02 461.098C1008.51 460.675 1009.09 460.449 1009.67 460.449C1010.46 460.449 1011.22 460.855 1011.78 461.577C1012.33 462.3 1012.65 463.28 1012.65 464.302Z" fill="white"/>
<path d="M391.728 708.792C391.728 709.554 391.553 710.299 391.227 710.933C390.9 711.566 390.436 712.06 389.893 712.352C389.349 712.644 388.752 712.72 388.175 712.571C387.598 712.422 387.068 712.055 386.653 711.516C386.237 710.978 385.954 710.291 385.839 709.543C385.724 708.796 385.783 708.021 386.008 707.317C386.233 706.613 386.614 706.011 387.103 705.588C387.592 705.164 388.167 704.938 388.755 704.938C389.543 704.938 390.3 705.344 390.857 706.067C391.415 706.789 391.728 707.77 391.728 708.792Z" fill="white"/>
<path d="M1012.65 464.302C1012.65 465.064 1012.47 465.809 1012.15 466.443C1011.82 467.077 1011.35 467.571 1010.81 467.862C1010.27 468.154 1009.67 468.23 1009.09 468.082C1008.52 467.933 1007.99 467.566 1007.57 467.027C1007.16 466.488 1006.87 465.801 1006.76 465.054C1006.64 464.306 1006.7 463.532 1006.93 462.827C1007.15 462.123 1007.53 461.521 1008.02 461.098C1008.51 460.675 1009.09 460.449 1009.67 460.449C1010.46 460.449 1011.22 460.855 1011.78 461.577C1012.33 462.3 1012.65 463.28 1012.65 464.302Z" fill="white"/>
<path d="M1194.64 697.004C1194.64 697.767 1194.47 698.512 1194.14 699.145C1193.82 699.779 1193.35 700.273 1192.81 700.565C1192.27 700.856 1191.67 700.933 1191.09 700.784C1190.52 700.635 1189.99 700.268 1189.57 699.729C1189.15 699.19 1188.87 698.504 1188.76 697.756C1188.64 697.009 1188.7 696.234 1188.93 695.53C1189.15 694.826 1189.53 694.224 1190.02 693.8C1190.51 693.377 1191.08 693.151 1191.67 693.151C1192.46 693.159 1193.21 693.568 1193.77 694.289C1194.32 695.01 1194.64 695.985 1194.64 697.004Z" fill="white"/>
<path d="M180.3 800.305C180.3 801.07 180.124 801.818 179.795 802.453C179.466 803.088 178.999 803.581 178.453 803.871C177.906 804.161 177.306 804.233 176.728 804.079C176.15 803.925 175.62 803.552 175.207 803.006C174.793 802.461 174.514 801.768 174.405 801.016C174.296 800.265 174.362 799.488 174.595 798.785C174.827 798.082 175.216 797.485 175.712 797.069C176.207 796.654 176.787 796.439 177.377 796.452C178.156 796.469 178.9 796.882 179.447 797.603C179.993 798.324 180.3 799.294 180.3 800.305Z" fill="white"/>
<path d="M391.728 708.792C391.728 709.554 391.553 710.299 391.227 710.933C390.9 711.566 390.436 712.06 389.893 712.352C389.349 712.644 388.752 712.72 388.175 712.571C387.598 712.422 387.068 712.055 386.653 711.516C386.237 710.978 385.954 710.291 385.839 709.543C385.724 708.796 385.783 708.021 386.008 707.317C386.233 706.613 386.614 706.011 387.103 705.588C387.592 705.164 388.167 704.938 388.755 704.938C389.543 704.938 390.3 705.344 390.857 706.067C391.415 706.789 391.728 707.77 391.728 708.792Z" fill="white"/>
<path d="M180.3 800.305C180.3 801.07 180.124 801.818 179.795 802.453C179.466 803.088 178.999 803.581 178.453 803.871C177.906 804.161 177.306 804.233 176.728 804.079C176.15 803.925 175.62 803.552 175.207 803.006C174.793 802.461 174.514 801.768 174.405 801.016C174.296 800.265 174.362 799.488 174.595 798.785C174.827 798.082 175.216 797.485 175.712 797.069C176.207 796.654 176.787 796.439 177.377 796.452C178.156 796.469 178.9 796.882 179.447 797.603C179.993 798.324 180.3 799.294 180.3 800.305Z" fill="white"/>
<path d="M391.728 708.792C391.728 709.554 391.553 710.299 391.227 710.933C390.9 711.566 390.436 712.06 389.893 712.352C389.349 712.644 388.752 712.72 388.175 712.571C387.598 712.422 387.068 712.055 386.653 711.516C386.237 710.978 385.954 710.291 385.839 709.543C385.724 708.796 385.783 708.021 386.008 707.317C386.233 706.613 386.614 706.011 387.103 705.588C387.592 705.164 388.167 704.938 388.755 704.938C389.543 704.938 390.3 705.344 390.857 706.067C391.415 706.789 391.728 707.77 391.728 708.792Z" fill="white"/>
</g>
</g>
<defs>
<radialGradient id="paint0_radial_64_124" cx="0" cy="0" r="1" gradientUnits="userSpaceOnUse" gradientTransform="translate(1139 414.431) rotate(0.359434) scale(239.31 147.087)">
<stop stop-color="#002336"/>
<stop offset="0.04" stop-color="#002132"/>
<stop offset="0.42" stop-color="#000F17"/>
<stop offset="0.75" stop-color="#000406"/>
<stop offset="1"/>
</radialGradient>
</defs>
</svg>
